<svg width="60" height="58" viewBox="0 0 60 58" fill="none" xmlns="http://www.w3.org/2000/svg">
<rect width="60" height="58" rx="15" fill="#DCFAF8"/>
<path d="M39.8327 39.5V37.1667C39.8327 35.929 39.341 34.742 38.4658 33.8668C37.5907 32.9917 36.4037 32.5 35.166 32.5H25.8327C24.595 32.5 23.408 32.9917 22.5329 33.8668C21.6577 34.742 21.166 35.929 21.166 37.1667V39.5" stroke="black" stroke-width="2" stroke-linecap="round" stroke-linejoin="round"/>
<path d="M30.5007 27.8333C33.078 27.8333 35.1673 25.744 35.1673 23.1667C35.1673 20.5893 33.078 18.5 30.5007 18.5C27.9233 18.5 25.834 20.5893 25.834 23.1667C25.834 25.744 27.9233 27.8333 30.5007 27.8333Z" stroke="black" stroke-width="2" stroke-linecap="round" stroke-linejoin="round"/>
<path d="M46.834 39.5002V37.1669C46.8332 36.1329 46.4891 35.1284 45.8556 34.3112C45.2221 33.494 44.3351 32.9104 43.334 32.6519" stroke="black" stroke-width="2" stroke-linecap="round" stroke-linejoin="round"/>
<path d="M38.666 18.6519C39.6698 18.9089 40.5596 19.4927 41.1949 20.3112C41.8303 21.1298 42.1752 22.1365 42.1752 23.1727C42.1752 24.2089 41.8303 25.2156 41.1949 26.0342C40.5596 26.8527 39.6698 27.4365 38.666 27.6935" stroke="black" stroke-width="2" stroke-linecap="round" stroke-linejoin="round"/>
</svg>
