<svg width="60" height="58" viewBox="0 0 60 58" fill="none" xmlns="http://www.w3.org/2000/svg">
<rect width="60" height="58" rx="15" fill="#E0F6D9"/>
<path d="M30 16.5C32.3206 16.5 34.5462 17.4219 36.1872 19.0628C37.8281 20.7038 38.75 22.9294 38.75 25.25C38.75 28.225 37.2625 30.8375 35 32.425V35.25C35 35.5815 34.8683 35.8995 34.6339 36.1339C34.3995 36.3683 34.0815 36.5 33.75 36.5H26.25C25.9185 36.5 25.6005 36.3683 25.3661 36.1339C25.1317 35.8995 25 35.5815 25 35.25V32.425C22.7375 30.8375 21.25 28.225 21.25 25.25C21.25 22.9294 22.1719 20.7038 23.8128 19.0628C25.4538 17.4219 27.6794 16.5 30 16.5M26.25 40.25V39H33.75V40.25C33.75 40.5815 33.6183 40.8995 33.3839 41.1339C33.1495 41.3683 32.8315 41.5 32.5 41.5H27.5C27.1685 41.5 26.8505 41.3683 26.6161 41.1339C26.3817 40.8995 26.25 40.5815 26.25 40.25ZM30 19C28.3424 19 26.7527 19.6585 25.5806 20.8306C24.4085 22.0027 23.75 23.5924 23.75 25.25C23.75 27.8125 25.2875 30.0125 27.5 30.975V34H32.5V30.975C34.7125 30.0125 36.25 27.8125 36.25 25.25C36.25 23.5924 35.5915 22.0027 34.4194 20.8306C33.2473 19.6585 31.6576 19 30 19V19Z" fill="black"/>
</svg>
