<svg width="189" height="48" viewBox="0 0 189 48" fill="none" xmlns="http://www.w3.org/2000/svg">
<path d="M11.5244 26.504C9.46044 26.504 7.46844 26.252 5.54844 25.748C3.65244 25.22 2.10444 24.548 0.904438 23.732L3.24444 18.476C4.37244 19.196 5.66844 19.796 7.13244 20.276C8.62044 20.732 10.0964 20.96 11.5604 20.96C12.5444 20.96 13.3364 20.876 13.9364 20.708C14.5364 20.516 14.9684 20.276 15.2324 19.988C15.5204 19.676 15.6644 19.316 15.6644 18.908C15.6644 18.332 15.4004 17.876 14.8724 17.54C14.3444 17.204 13.6604 16.928 12.8204 16.712C11.9804 16.496 11.0444 16.28 10.0124 16.064C9.00444 15.848 7.98444 15.572 6.95244 15.236C5.94444 14.9 5.02044 14.468 4.18044 13.94C3.34044 13.388 2.65644 12.68 2.12844 11.816C1.60044 10.928 1.33644 9.812 1.33644 8.468C1.33644 6.956 1.74444 5.588 2.56044 4.364C3.40044 3.14 4.64844 2.156 6.30444 1.412C7.96044 0.667999 10.0244 0.295998 12.4964 0.295998C14.1524 0.295998 15.7724 0.487999 17.3564 0.872C18.9644 1.232 20.3924 1.772 21.6404 2.492L19.4444 7.784C18.2444 7.136 17.0564 6.656 15.8804 6.344C14.7044 6.008 13.5644 5.84 12.4604 5.84C11.4764 5.84 10.6844 5.948 10.0844 6.164C9.48444 6.356 9.05244 6.62 8.78844 6.956C8.52444 7.292 8.39244 7.676 8.39244 8.108C8.39244 8.66 8.64444 9.104 9.14844 9.44C9.67644 9.752 10.3604 10.016 11.2004 10.232C12.0644 10.424 13.0004 10.628 14.0084 10.844C15.0404 11.06 16.0604 11.336 17.0684 11.672C18.1004 11.984 19.0364 12.416 19.8764 12.968C20.7164 13.496 21.3884 14.204 21.8924 15.092C22.4204 15.956 22.6844 17.048 22.6844 18.368C22.6844 19.832 22.2644 21.188 21.4244 22.436C20.6084 23.66 19.3724 24.644 17.7164 25.388C16.0844 26.132 14.0204 26.504 11.5244 26.504ZM28.6495 33.308C27.6175 33.308 26.5735 33.14 25.5175 32.804C24.4855 32.492 23.6455 32.072 22.9975 31.544L25.3735 26.756C25.7815 27.116 26.2495 27.392 26.7775 27.584C27.3295 27.8 27.8695 27.908 28.3975 27.908C29.1415 27.908 29.7295 27.74 30.1615 27.404C30.5935 27.068 30.9655 26.54 31.2775 25.82L32.1775 23.552L32.7175 22.868L39.3415 6.488H45.8575L37.4335 26.792C36.7615 28.472 35.9815 29.78 35.0935 30.716C34.2295 31.676 33.2575 32.348 32.1775 32.732C31.1215 33.116 29.9455 33.308 28.6495 33.308ZM31.3135 26.828L22.7095 6.488H29.7295L36.0655 22.256L31.3135 26.828ZM57.0703 26.324C54.9103 26.324 52.9783 25.892 51.2743 25.028C49.5943 24.164 48.2743 22.976 47.3143 21.464C46.3543 19.928 45.8743 18.176 45.8743 16.208C45.8743 14.24 46.3543 12.5 47.3143 10.988C48.2743 9.476 49.5943 8.3 51.2743 7.46C52.9783 6.596 54.9103 6.164 57.0703 6.164C59.2783 6.164 61.1863 6.632 62.7943 7.568C64.4023 8.504 65.5423 9.824 66.2143 11.528L60.9223 14.228C60.4663 13.316 59.9023 12.656 59.2303 12.248C58.5583 11.816 57.8263 11.6 57.0343 11.6C56.2423 11.6 55.5223 11.78 54.8743 12.14C54.2263 12.5 53.7103 13.028 53.3263 13.724C52.9663 14.396 52.7863 15.224 52.7863 16.208C52.7863 17.216 52.9663 18.068 53.3263 18.764C53.7103 19.46 54.2263 19.988 54.8743 20.348C55.5223 20.708 56.2423 20.888 57.0343 20.888C57.8263 20.888 58.5583 20.684 59.2303 20.276C59.9023 19.844 60.4663 19.172 60.9223 18.26L66.2143 20.96C65.5423 22.664 64.4023 23.984 62.7943 24.92C61.1863 25.856 59.2783 26.324 57.0703 26.324ZM80.7058 26V22.364L80.2378 21.464V14.768C80.2378 13.688 79.9018 12.86 79.2298 12.284C78.5818 11.684 77.5378 11.384 76.0977 11.384C75.1618 11.384 74.2138 11.54 73.2538 11.852C72.2938 12.14 71.4778 12.548 70.8058 13.076L68.5018 8.432C69.6058 7.712 70.9258 7.16 72.4618 6.776C74.0218 6.368 75.5698 6.164 77.1058 6.164C80.2738 6.164 82.7218 6.896 84.4498 8.36C86.2018 9.8 87.0778 12.068 87.0778 15.164V26H80.7058ZM74.9458 26.324C73.3858 26.324 72.0658 26.06 70.9858 25.532C69.9058 25.004 69.0778 24.284 68.5018 23.372C67.9498 22.46 67.6738 21.44 67.6738 20.312C67.6738 19.112 67.9738 18.08 68.5738 17.216C69.1978 16.328 70.1458 15.656 71.4178 15.2C72.6898 14.72 74.3338 14.48 76.3498 14.48H80.9578V18.044H77.2858C76.1818 18.044 75.4018 18.224 74.9458 18.584C74.5138 18.944 74.2978 19.424 74.2978 20.024C74.2978 20.624 74.5258 21.104 74.9818 21.464C75.4378 21.824 76.0618 22.004 76.8538 22.004C77.5978 22.004 78.2698 21.824 78.8698 21.464C79.4938 21.08 79.9498 20.504 80.2378 19.736L81.1738 22.256C80.8138 23.6 80.1058 24.62 79.0498 25.316C78.0178 25.988 76.6498 26.324 74.9458 26.324ZM116.811 6.164C118.323 6.164 119.667 6.476 120.843 7.1C122.043 7.7 122.979 8.636 123.651 9.908C124.347 11.18 124.695 12.824 124.695 14.84V26H117.855V15.956C117.855 14.564 117.591 13.556 117.063 12.932C116.535 12.284 115.815 11.96 114.903 11.96C114.255 11.96 113.667 12.116 113.139 12.428C112.611 12.74 112.203 13.22 111.915 13.868C111.627 14.492 111.483 15.308 111.483 16.316V26H104.643V15.956C104.643 14.564 104.379 13.556 103.851 12.932C103.347 12.284 102.627 11.96 101.691 11.96C101.019 11.96 100.419 12.116 99.8912 12.428C99.3872 12.74 98.9792 13.22 98.6672 13.868C98.3792 14.492 98.2352 15.308 98.2352 16.316V26H91.3952V6.488H97.9112V11.924L96.6152 10.376C97.3352 8.984 98.3192 7.94 99.5672 7.244C100.815 6.524 102.207 6.164 103.743 6.164C105.495 6.164 107.031 6.62 108.351 7.532C109.695 8.42 110.595 9.812 111.051 11.708L108.819 11.24C109.515 9.656 110.559 8.42 111.951 7.532C113.367 6.62 114.987 6.164 116.811 6.164ZM139.051 26.324C136.915 26.324 135.019 25.892 133.363 25.028C131.707 24.164 130.399 22.976 129.438 21.464C128.503 19.928 128.035 18.176 128.035 16.208C128.035 14.24 128.503 12.5 129.438 10.988C130.399 9.476 131.707 8.3 133.363 7.46C135.019 6.596 136.915 6.164 139.051 6.164C141.187 6.164 143.083 6.596 144.739 7.46C146.419 8.3 147.727 9.476 148.663 10.988C149.599 12.5 150.067 14.24 150.067 16.208C150.067 18.176 149.599 19.928 148.663 21.464C147.727 22.976 146.419 24.164 144.739 25.028C143.083 25.892 141.187 26.324 139.051 26.324ZM139.051 20.888C139.843 20.888 140.539 20.708 141.139 20.348C141.763 19.988 142.255 19.46 142.615 18.764C142.975 18.044 143.155 17.192 143.155 16.208C143.155 15.224 142.975 14.396 142.615 13.724C142.255 13.028 141.763 12.5 141.139 12.14C140.539 11.78 139.843 11.6 139.051 11.6C138.283 11.6 137.587 11.78 136.963 12.14C136.363 12.5 135.871 13.028 135.487 13.724C135.127 14.396 134.947 15.224 134.947 16.208C134.947 17.192 135.127 18.044 135.487 18.764C135.871 19.46 136.363 19.988 136.963 20.348C137.587 20.708 138.283 20.888 139.051 20.888ZM153.235 26V6.488H159.751V12.176L158.779 10.556C159.355 9.092 160.291 8 161.587 7.28C162.883 6.536 164.455 6.164 166.303 6.164V12.32C165.991 12.272 165.715 12.248 165.475 12.248C165.259 12.224 165.019 12.212 164.755 12.212C163.363 12.212 162.235 12.596 161.371 13.364C160.507 14.108 160.075 15.332 160.075 17.036V26H153.235ZM179.174 26.324C176.87 26.324 174.854 25.892 173.126 25.028C171.422 24.14 170.09 22.94 169.13 21.428C168.194 19.892 167.726 18.152 167.726 16.208C167.726 14.264 168.182 12.536 169.094 11.024C170.03 9.488 171.314 8.3 172.946 7.46C174.578 6.596 176.414 6.164 178.454 6.164C180.374 6.164 182.126 6.56 183.71 7.352C185.294 8.12 186.554 9.26 187.49 10.772C188.426 12.284 188.894 14.12 188.894 16.28C188.894 16.52 188.882 16.796 188.858 17.108C188.834 17.42 188.81 17.708 188.786 17.972H173.342V14.372H185.15L182.558 15.38C182.582 14.492 182.414 13.724 182.054 13.076C181.718 12.428 181.238 11.924 180.614 11.564C180.014 11.204 179.306 11.024 178.49 11.024C177.674 11.024 176.954 11.204 176.33 11.564C175.73 11.924 175.262 12.44 174.926 13.112C174.59 13.76 174.422 14.528 174.422 15.416V16.46C174.422 17.42 174.614 18.248 174.998 18.944C175.406 19.64 175.982 20.18 176.726 20.564C177.47 20.924 178.358 21.104 179.39 21.104C180.35 21.104 181.166 20.972 181.838 20.708C182.534 20.42 183.218 19.988 183.89 19.412L187.49 23.156C186.554 24.188 185.402 24.98 184.034 25.532C182.666 26.06 181.046 26.324 179.174 26.324ZM44.7386 47.045C43.9586 47.045 43.2136 46.955 42.5036 46.775C41.8036 46.595 41.2036 46.33 40.7036 45.98L41.7386 43.985C42.0786 44.255 42.4986 44.465 42.9986 44.615C43.5086 44.775 44.0036 44.855 44.4836 44.855C45.2536 44.855 45.8086 44.685 46.1486 44.345C46.4886 44.015 46.6586 43.53 46.6586 42.89V41.93L46.8086 39.65L46.7936 37.355V35.87H49.5086V42.515C49.5086 44.055 49.0936 45.195 48.2636 45.935C47.4336 46.675 46.2586 47.045 44.7386 47.045ZM44.2436 43.58C43.5236 43.58 42.8586 43.42 42.2486 43.1C41.6486 42.77 41.1636 42.315 40.7936 41.735C40.4336 41.145 40.2536 40.45 40.2536 39.65C40.2536 38.85 40.4336 38.16 40.7936 37.58C41.1636 36.99 41.6486 36.535 42.2486 36.215C42.8586 35.895 43.5236 35.735 44.2436 35.735C44.9336 35.735 45.5236 35.875 46.0136 36.155C46.5036 36.425 46.8736 36.85 47.1236 37.43C47.3836 38.01 47.5136 38.75 47.5136 39.65C47.5136 40.55 47.3836 41.29 47.1236 41.87C46.8736 42.45 46.5036 42.88 46.0136 43.16C45.5236 43.44 44.9336 43.58 44.2436 43.58ZM44.9186 41.315C45.2586 41.315 45.5586 41.245 45.8186 41.105C46.0886 40.965 46.2986 40.77 46.4486 40.52C46.6086 40.27 46.6886 39.98 46.6886 39.65C46.6886 39.32 46.6086 39.03 46.4486 38.78C46.2986 38.53 46.0886 38.34 45.8186 38.21C45.5586 38.07 45.2586 38 44.9186 38C44.5786 38 44.2736 38.07 44.0036 38.21C43.7336 38.34 43.5186 38.53 43.3586 38.78C43.2086 39.03 43.1336 39.32 43.1336 39.65C43.1336 39.98 43.2086 40.27 43.3586 40.52C43.5186 40.77 43.7336 40.965 44.0036 41.105C44.2736 41.245 44.5786 41.315 44.9186 41.315ZM51.3398 44V35.87H54.0548V38.24L53.6498 37.565C53.8898 36.955 54.2798 36.5 54.8198 36.2C55.3598 35.89 56.0148 35.735 56.7848 35.735V38.3C56.6548 38.28 56.5398 38.27 56.4398 38.27C56.3498 38.26 56.2498 38.255 56.1398 38.255C55.5598 38.255 55.0898 38.415 54.7298 38.735C54.3698 39.045 54.1898 39.555 54.1898 40.265V44H51.3398ZM61.9677 44.135C61.0777 44.135 60.2877 43.955 59.5977 43.595C58.9077 43.235 58.3627 42.74 57.9627 42.11C57.5727 41.47 57.3777 40.74 57.3777 39.92C57.3777 39.1 57.5727 38.375 57.9627 37.745C58.3627 37.115 58.9077 36.625 59.5977 36.275C60.2877 35.915 61.0777 35.735 61.9677 35.735C62.8577 35.735 63.6477 35.915 64.3377 36.275C65.0377 36.625 65.5827 37.115 65.9727 37.745C66.3627 38.375 66.5577 39.1 66.5577 39.92C66.5577 40.74 66.3627 41.47 65.9727 42.11C65.5827 42.74 65.0377 43.235 64.3377 43.595C63.6477 43.955 62.8577 44.135 61.9677 44.135ZM61.9677 41.87C62.2977 41.87 62.5877 41.795 62.8377 41.645C63.0977 41.495 63.3027 41.275 63.4527 40.985C63.6027 40.685 63.6777 40.33 63.6777 39.92C63.6777 39.51 63.6027 39.165 63.4527 38.885C63.3027 38.595 63.0977 38.375 62.8377 38.225C62.5877 38.075 62.2977 38 61.9677 38C61.6477 38 61.3577 38.075 61.0977 38.225C60.8477 38.375 60.6427 38.595 60.4827 38.885C60.3327 39.165 60.2577 39.51 60.2577 39.92C60.2577 40.33 60.3327 40.685 60.4827 40.985C60.6427 41.275 60.8477 41.495 61.0977 41.645C61.3577 41.795 61.6477 41.87 61.9677 41.87ZM69.5932 44L66.6982 35.87H69.3982L71.6932 42.665H70.4032L72.7882 35.87H75.2182L77.5132 42.665H76.2532L78.6232 35.87H81.1282L78.2332 44H75.4732L73.5232 38.375H74.3632L72.3532 44H69.5932ZM90.6242 44.135C89.6642 44.135 88.8242 43.955 88.1042 43.595C87.3942 43.225 86.8392 42.725 86.4392 42.095C86.0492 41.455 85.8542 40.73 85.8542 39.92C85.8542 39.11 86.0442 38.39 86.4242 37.76C86.8142 37.12 87.3492 36.625 88.0292 36.275C88.7092 35.915 89.4742 35.735 90.3242 35.735C91.1242 35.735 91.8542 35.9 92.5142 36.23C93.1742 36.55 93.6992 37.025 94.0892 37.655C94.4792 38.285 94.6742 39.05 94.6742 39.95C94.6742 40.05 94.6692 40.165 94.6592 40.295C94.6492 40.425 94.6392 40.545 94.6292 40.655H88.1942V39.155H93.1142L92.0342 39.575C92.0442 39.205 91.9742 38.885 91.8242 38.615C91.6842 38.345 91.4842 38.135 91.2242 37.985C90.9742 37.835 90.6792 37.76 90.3392 37.76C89.9992 37.76 89.6992 37.835 89.4392 37.985C89.1892 38.135 88.9942 38.35 88.8542 38.63C88.7142 38.9 88.6442 39.22 88.6442 39.59V40.025C88.6442 40.425 88.7242 40.77 88.8842 41.06C89.0542 41.35 89.2942 41.575 89.6042 41.735C89.9142 41.885 90.2842 41.96 90.7142 41.96C91.1142 41.96 91.4542 41.905 91.7342 41.795C92.0242 41.675 92.3092 41.495 92.5892 41.255L94.0892 42.815C93.6992 43.245 93.2192 43.575 92.6492 43.805C92.0792 44.025 91.4042 44.135 90.6242 44.135ZM95.9882 44V32.87H98.8382V44H95.9882ZM104.95 44.135C103.99 44.135 103.15 43.955 102.43 43.595C101.72 43.225 101.165 42.725 100.765 42.095C100.375 41.455 100.18 40.73 100.18 39.92C100.18 39.11 100.37 38.39 100.75 37.76C101.14 37.12 101.675 36.625 102.355 36.275C103.035 35.915 103.8 35.735 104.65 35.735C105.45 35.735 106.18 35.9 106.84 36.23C107.5 36.55 108.025 37.025 108.415 37.655C108.805 38.285 109 39.05 109 39.95C109 40.05 108.995 40.165 108.985 40.295C108.975 40.425 108.965 40.545 108.955 40.655H102.52V39.155H107.44L106.36 39.575C106.37 39.205 106.3 38.885 106.15 38.615C106.01 38.345 105.81 38.135 105.55 37.985C105.3 37.835 105.005 37.76 104.665 37.76C104.325 37.76 104.025 37.835 103.765 37.985C103.515 38.135 103.32 38.35 103.18 38.63C103.04 38.9 102.97 39.22 102.97 39.59V40.025C102.97 40.425 103.05 40.77 103.21 41.06C103.38 41.35 103.62 41.575 103.93 41.735C104.24 41.885 104.61 41.96 105.04 41.96C105.44 41.96 105.78 41.905 106.06 41.795C106.35 41.675 106.635 41.495 106.915 41.255L108.415 42.815C108.025 43.245 107.545 43.575 106.975 43.805C106.405 44.025 105.73 44.135 104.95 44.135ZM114.469 44.135C113.569 44.135 112.764 43.955 112.054 43.595C111.354 43.235 110.804 42.74 110.404 42.11C110.004 41.47 109.804 40.74 109.804 39.92C109.804 39.1 110.004 38.375 110.404 37.745C110.804 37.115 111.354 36.625 112.054 36.275C112.764 35.915 113.569 35.735 114.469 35.735C115.389 35.735 116.184 35.93 116.854 36.32C117.524 36.71 117.999 37.26 118.279 37.97L116.074 39.095C115.884 38.715 115.649 38.44 115.369 38.27C115.089 38.09 114.784 38 114.454 38C114.124 38 113.824 38.075 113.554 38.225C113.284 38.375 113.069 38.595 112.909 38.885C112.759 39.165 112.684 39.51 112.684 39.92C112.684 40.34 112.759 40.695 112.909 40.985C113.069 41.275 113.284 41.495 113.554 41.645C113.824 41.795 114.124 41.87 114.454 41.87C114.784 41.87 115.089 41.785 115.369 41.615C115.649 41.435 115.884 41.155 116.074 40.775L118.279 41.9C117.999 42.61 117.524 43.16 116.854 43.55C116.184 43.94 115.389 44.135 114.469 44.135ZM123.114 44.135C122.074 44.135 121.264 43.88 120.684 43.37C120.104 42.85 119.814 42.07 119.814 41.03V34.055H122.664V41C122.664 41.29 122.744 41.52 122.904 41.69C123.064 41.85 123.269 41.93 123.519 41.93C123.859 41.93 124.149 41.845 124.389 41.675L125.094 43.67C124.854 43.83 124.559 43.945 124.209 44.015C123.859 44.095 123.494 44.135 123.114 44.135ZM118.629 38.3V36.17H124.524V38.3H118.629ZM126.193 44V35.87H128.908V38.24L128.503 37.565C128.743 36.955 129.133 36.5 129.673 36.2C130.213 35.89 130.868 35.735 131.638 35.735V38.3C131.508 38.28 131.393 38.27 131.293 38.27C131.203 38.26 131.103 38.255 130.993 38.255C130.413 38.255 129.943 38.415 129.583 38.735C129.223 39.045 129.043 39.555 129.043 40.265V44H126.193ZM132.814 44V35.87H135.664V44H132.814ZM134.239 34.97C133.719 34.97 133.299 34.825 132.979 34.535C132.659 34.245 132.499 33.885 132.499 33.455C132.499 33.025 132.659 32.665 132.979 32.375C133.299 32.085 133.719 31.94 134.239 31.94C134.759 31.94 135.179 32.08 135.499 32.36C135.819 32.63 135.979 32.98 135.979 33.41C135.979 33.86 135.819 34.235 135.499 34.535C135.189 34.825 134.769 34.97 134.239 34.97ZM141.672 44.135C140.772 44.135 139.967 43.955 139.257 43.595C138.557 43.235 138.007 42.74 137.607 42.11C137.207 41.47 137.007 40.74 137.007 39.92C137.007 39.1 137.207 38.375 137.607 37.745C138.007 37.115 138.557 36.625 139.257 36.275C139.967 35.915 140.772 35.735 141.672 35.735C142.592 35.735 143.387 35.93 144.057 36.32C144.727 36.71 145.202 37.26 145.482 37.97L143.277 39.095C143.087 38.715 142.852 38.44 142.572 38.27C142.292 38.09 141.987 38 141.657 38C141.327 38 141.027 38.075 140.757 38.225C140.487 38.375 140.272 38.595 140.112 38.885C139.962 39.165 139.887 39.51 139.887 39.92C139.887 40.34 139.962 40.695 140.112 40.985C140.272 41.275 140.487 41.495 140.757 41.645C141.027 41.795 141.327 41.87 141.657 41.87C141.987 41.87 142.292 41.785 142.572 41.615C142.852 41.435 143.087 41.155 143.277 40.775L145.482 41.9C145.202 42.61 144.727 43.16 144.057 43.55C143.387 43.94 142.592 44.135 141.672 44.135ZM146.765 40.175L146.21 33.5H149.6L149.03 40.175H146.765ZM147.905 44.135C147.405 44.135 146.995 43.98 146.675 43.67C146.355 43.36 146.195 42.99 146.195 42.56C146.195 42.12 146.355 41.755 146.675 41.465C146.995 41.165 147.405 41.015 147.905 41.015C148.405 41.015 148.81 41.165 149.12 41.465C149.44 41.755 149.6 42.12 149.6 42.56C149.6 42.99 149.44 43.36 149.12 43.67C148.81 43.98 148.405 44.135 147.905 44.135Z" fill="#00C857"/>
</svg>
