<svg width="242" height="152" viewBox="0 0 242 152" fill="none" xmlns="http://www.w3.org/2000/svg">
<rect width="242" height="152" fill="white"/>
<path d="M165.74 138.21C164.88 138.21 164.05 138.105 163.25 137.895C162.46 137.675 161.815 137.395 161.315 137.055L162.29 134.865C162.76 135.165 163.3 135.415 163.91 135.615C164.53 135.805 165.145 135.9 165.755 135.9C166.165 135.9 166.495 135.865 166.745 135.795C166.995 135.715 167.175 135.615 167.285 135.495C167.405 135.365 167.465 135.215 167.465 135.045C167.465 134.805 167.355 134.615 167.135 134.475C166.915 134.335 166.63 134.22 166.28 134.13C165.93 134.04 165.54 133.95 165.11 133.86C164.69 133.77 164.265 133.655 163.835 133.515C163.415 133.375 163.03 133.195 162.68 132.975C162.33 132.745 162.045 132.45 161.825 132.09C161.605 131.72 161.495 131.255 161.495 130.695C161.495 130.065 161.665 129.495 162.005 128.985C162.355 128.475 162.875 128.065 163.565 127.755C164.255 127.445 165.115 127.29 166.145 127.29C166.835 127.29 167.51 127.37 168.17 127.53C168.84 127.68 169.435 127.905 169.955 128.205L169.04 130.41C168.54 130.14 168.045 129.94 167.555 129.81C167.065 129.67 166.59 129.6 166.13 129.6C165.72 129.6 165.39 129.645 165.14 129.735C164.89 129.815 164.71 129.925 164.6 130.065C164.49 130.205 164.435 130.365 164.435 130.545C164.435 130.775 164.54 130.96 164.75 131.1C164.97 131.23 165.255 131.34 165.605 131.43C165.965 131.51 166.355 131.595 166.775 131.685C167.205 131.775 167.63 131.89 168.05 132.03C168.48 132.16 168.87 132.34 169.22 132.57C169.57 132.79 169.85 133.085 170.06 133.455C170.28 133.815 170.39 134.27 170.39 134.82C170.39 135.43 170.215 135.995 169.865 136.515C169.525 137.025 169.01 137.435 168.32 137.745C167.64 138.055 166.78 138.21 165.74 138.21ZM172.875 141.045C172.445 141.045 172.01 140.975 171.57 140.835C171.14 140.705 170.79 140.53 170.52 140.31L171.51 138.315C171.68 138.465 171.875 138.58 172.095 138.66C172.325 138.75 172.55 138.795 172.77 138.795C173.08 138.795 173.325 138.725 173.505 138.585C173.685 138.445 173.84 138.225 173.97 137.925L174.345 136.98L174.57 136.695L177.33 129.87H180.045L176.535 138.33C176.255 139.03 175.93 139.575 175.56 139.965C175.2 140.365 174.795 140.645 174.345 140.805C173.905 140.965 173.415 141.045 172.875 141.045ZM173.985 138.345L170.4 129.87H173.325L175.965 136.44L173.985 138.345ZM184.717 138.135C183.817 138.135 183.012 137.955 182.302 137.595C181.602 137.235 181.052 136.74 180.652 136.11C180.252 135.47 180.052 134.74 180.052 133.92C180.052 133.1 180.252 132.375 180.652 131.745C181.052 131.115 181.602 130.625 182.302 130.275C183.012 129.915 183.817 129.735 184.717 129.735C185.637 129.735 186.432 129.93 187.102 130.32C187.772 130.71 188.247 131.26 188.527 131.97L186.322 133.095C186.132 132.715 185.897 132.44 185.617 132.27C185.337 132.09 185.032 132 184.702 132C184.372 132 184.072 132.075 183.802 132.225C183.532 132.375 183.317 132.595 183.157 132.885C183.007 133.165 182.932 133.51 182.932 133.92C182.932 134.34 183.007 134.695 183.157 134.985C183.317 135.275 183.532 135.495 183.802 135.645C184.072 135.795 184.372 135.87 184.702 135.87C185.032 135.87 185.337 135.785 185.617 135.615C185.897 135.435 186.132 135.155 186.322 134.775L188.527 135.9C188.247 136.61 187.772 137.16 187.102 137.55C186.432 137.94 185.637 138.135 184.717 138.135ZM194.566 138V136.485L194.371 136.11V133.32C194.371 132.87 194.231 132.525 193.951 132.285C193.681 132.035 193.246 131.91 192.646 131.91C192.256 131.91 191.861 131.975 191.461 132.105C191.061 132.225 190.721 132.395 190.441 132.615L189.481 130.68C189.941 130.38 190.491 130.15 191.131 129.99C191.781 129.82 192.426 129.735 193.066 129.735C194.386 129.735 195.406 130.04 196.126 130.65C196.856 131.25 197.221 132.195 197.221 133.485V138H194.566ZM192.166 138.135C191.516 138.135 190.966 138.025 190.516 137.805C190.066 137.585 189.721 137.285 189.481 136.905C189.251 136.525 189.136 136.1 189.136 135.63C189.136 135.13 189.261 134.7 189.511 134.34C189.771 133.97 190.166 133.69 190.696 133.5C191.226 133.3 191.911 133.2 192.751 133.2H194.671V134.685H193.141C192.681 134.685 192.356 134.76 192.166 134.91C191.986 135.06 191.896 135.26 191.896 135.51C191.896 135.76 191.991 135.96 192.181 136.11C192.371 136.26 192.631 136.335 192.961 136.335C193.271 136.335 193.551 136.26 193.801 136.11C194.061 135.95 194.251 135.71 194.371 135.39L194.761 136.44C194.611 137 194.316 137.425 193.876 137.715C193.446 137.995 192.876 138.135 192.166 138.135ZM209.609 129.735C210.239 129.735 210.799 129.865 211.289 130.125C211.789 130.375 212.179 130.765 212.459 131.295C212.749 131.825 212.894 132.51 212.894 133.35V138H210.044V133.815C210.044 133.235 209.934 132.815 209.714 132.555C209.494 132.285 209.194 132.15 208.814 132.15C208.544 132.15 208.299 132.215 208.079 132.345C207.859 132.475 207.689 132.675 207.569 132.945C207.449 133.205 207.389 133.545 207.389 133.965V138H204.539V133.815C204.539 133.235 204.429 132.815 204.209 132.555C203.999 132.285 203.699 132.15 203.309 132.15C203.029 132.15 202.779 132.215 202.559 132.345C202.349 132.475 202.179 132.675 202.049 132.945C201.929 133.205 201.869 133.545 201.869 133.965V138H199.019V129.87H201.734V132.135L201.194 131.49C201.494 130.91 201.904 130.475 202.424 130.185C202.944 129.885 203.524 129.735 204.164 129.735C204.894 129.735 205.534 129.925 206.084 130.305C206.644 130.675 207.019 131.255 207.209 132.045L206.279 131.85C206.569 131.19 207.004 130.675 207.584 130.305C208.174 129.925 208.849 129.735 209.609 129.735ZM218.876 138.135C217.986 138.135 217.196 137.955 216.506 137.595C215.816 137.235 215.271 136.74 214.871 136.11C214.481 135.47 214.286 134.74 214.286 133.92C214.286 133.1 214.481 132.375 214.871 131.745C215.271 131.115 215.816 130.625 216.506 130.275C217.196 129.915 217.986 129.735 218.876 129.735C219.766 129.735 220.556 129.915 221.246 130.275C221.946 130.625 222.491 131.115 222.881 131.745C223.271 132.375 223.466 133.1 223.466 133.92C223.466 134.74 223.271 135.47 222.881 136.11C222.491 136.74 221.946 137.235 221.246 137.595C220.556 137.955 219.766 138.135 218.876 138.135ZM218.876 135.87C219.206 135.87 219.496 135.795 219.746 135.645C220.006 135.495 220.211 135.275 220.361 134.985C220.511 134.685 220.586 134.33 220.586 133.92C220.586 133.51 220.511 133.165 220.361 132.885C220.211 132.595 220.006 132.375 219.746 132.225C219.496 132.075 219.206 132 218.876 132C218.556 132 218.266 132.075 218.006 132.225C217.756 132.375 217.551 132.595 217.391 132.885C217.241 133.165 217.166 133.51 217.166 133.92C217.166 134.33 217.241 134.685 217.391 134.985C217.551 135.275 217.756 135.495 218.006 135.645C218.266 135.795 218.556 135.87 218.876 135.87ZM224.786 138V129.87H227.501V132.24L227.096 131.565C227.336 130.955 227.726 130.5 228.266 130.2C228.806 129.89 229.461 129.735 230.231 129.735V132.3C230.101 132.28 229.986 132.27 229.886 132.27C229.796 132.26 229.696 132.255 229.586 132.255C229.006 132.255 228.536 132.415 228.176 132.735C227.816 133.045 227.636 133.555 227.636 134.265V138H224.786ZM235.594 138.135C234.634 138.135 233.794 137.955 233.074 137.595C232.364 137.225 231.809 136.725 231.409 136.095C231.019 135.455 230.824 134.73 230.824 133.92C230.824 133.11 231.014 132.39 231.394 131.76C231.784 131.12 232.319 130.625 232.999 130.275C233.679 129.915 234.444 129.735 235.294 129.735C236.094 129.735 236.824 129.9 237.484 130.23C238.144 130.55 238.669 131.025 239.059 131.655C239.449 132.285 239.644 133.05 239.644 133.95C239.644 134.05 239.639 134.165 239.629 134.295C239.619 134.425 239.609 134.545 239.599 134.655H233.164V133.155H238.084L237.004 133.575C237.014 133.205 236.944 132.885 236.794 132.615C236.654 132.345 236.454 132.135 236.194 131.985C235.944 131.835 235.649 131.76 235.309 131.76C234.969 131.76 234.669 131.835 234.409 131.985C234.159 132.135 233.964 132.35 233.824 132.63C233.684 132.9 233.614 133.22 233.614 133.59V134.025C233.614 134.425 233.694 134.77 233.854 135.06C234.024 135.35 234.264 135.575 234.574 135.735C234.884 135.885 235.254 135.96 235.684 135.96C236.084 135.96 236.424 135.905 236.704 135.795C236.994 135.675 237.279 135.495 237.559 135.255L239.059 136.815C238.669 137.245 238.189 137.575 237.619 137.805C237.049 138.025 236.374 138.135 235.594 138.135Z" fill="#004D40"/>
<rect width="85" height="38" fill="white"/>
<rect width="3" height="3" transform="matrix(-1 0 0 -1 242 152)" fill="white"/>
</svg>
