<svg width="189" height="34" viewBox="0 0 189 34" fill="none" xmlns="http://www.w3.org/2000/svg">
<path d="M11.5244 26.504C9.46044 26.504 7.46844 26.252 5.54844 25.748C3.65244 25.22 2.10444 24.548 0.904438 23.732L3.24444 18.476C4.37244 19.196 5.66844 19.796 7.13244 20.276C8.62044 20.732 10.0964 20.96 11.5604 20.96C12.5444 20.96 13.3364 20.876 13.9364 20.708C14.5364 20.516 14.9684 20.276 15.2324 19.988C15.5204 19.676 15.6644 19.316 15.6644 18.908C15.6644 18.332 15.4004 17.876 14.8724 17.54C14.3444 17.204 13.6604 16.928 12.8204 16.712C11.9804 16.496 11.0444 16.28 10.0124 16.064C9.00444 15.848 7.98444 15.572 6.95244 15.236C5.94444 14.9 5.02044 14.468 4.18044 13.94C3.34044 13.388 2.65644 12.68 2.12844 11.816C1.60044 10.928 1.33644 9.812 1.33644 8.468C1.33644 6.956 1.74444 5.588 2.56044 4.364C3.40044 3.14 4.64844 2.156 6.30444 1.412C7.96044 0.667999 10.0244 0.295998 12.4964 0.295998C14.1524 0.295998 15.7724 0.487999 17.3564 0.872C18.9644 1.232 20.3924 1.772 21.6404 2.492L19.4444 7.784C18.2444 7.136 17.0564 6.656 15.8804 6.344C14.7044 6.008 13.5644 5.84 12.4604 5.84C11.4764 5.84 10.6844 5.948 10.0844 6.164C9.48444 6.356 9.05244 6.62 8.78844 6.956C8.52444 7.292 8.39244 7.676 8.39244 8.108C8.39244 8.66 8.64444 9.104 9.14844 9.44C9.67644 9.752 10.3604 10.016 11.2004 10.232C12.0644 10.424 13.0004 10.628 14.0084 10.844C15.0404 11.06 16.0604 11.336 17.0684 11.672C18.1004 11.984 19.0364 12.416 19.8764 12.968C20.7164 13.496 21.3884 14.204 21.8924 15.092C22.4204 15.956 22.6844 17.048 22.6844 18.368C22.6844 19.832 22.2644 21.188 21.4244 22.436C20.6084 23.66 19.3724 24.644 17.7164 25.388C16.0844 26.132 14.0204 26.504 11.5244 26.504ZM28.6495 33.308C27.6175 33.308 26.5735 33.14 25.5175 32.804C24.4855 32.492 23.6455 32.072 22.9975 31.544L25.3735 26.756C25.7815 27.116 26.2495 27.392 26.7775 27.584C27.3295 27.8 27.8695 27.908 28.3975 27.908C29.1415 27.908 29.7295 27.74 30.1615 27.404C30.5935 27.068 30.9655 26.54 31.2775 25.82L32.1775 23.552L32.7175 22.868L39.3415 6.488H45.8575L37.4335 26.792C36.7615 28.472 35.9815 29.78 35.0935 30.716C34.2295 31.676 33.2575 32.348 32.1775 32.732C31.1215 33.116 29.9455 33.308 28.6495 33.308ZM31.3135 26.828L22.7095 6.488H29.7295L36.0655 22.256L31.3135 26.828ZM57.0703 26.324C54.9103 26.324 52.9783 25.892 51.2743 25.028C49.5943 24.164 48.2743 22.976 47.3143 21.464C46.3543 19.928 45.8743 18.176 45.8743 16.208C45.8743 14.24 46.3543 12.5 47.3143 10.988C48.2743 9.476 49.5943 8.3 51.2743 7.46C52.9783 6.596 54.9103 6.164 57.0703 6.164C59.2783 6.164 61.1863 6.632 62.7943 7.568C64.4023 8.504 65.5423 9.824 66.2143 11.528L60.9223 14.228C60.4663 13.316 59.9023 12.656 59.2303 12.248C58.5583 11.816 57.8263 11.6 57.0343 11.6C56.2423 11.6 55.5223 11.78 54.8743 12.14C54.2263 12.5 53.7103 13.028 53.3263 13.724C52.9663 14.396 52.7863 15.224 52.7863 16.208C52.7863 17.216 52.9663 18.068 53.3263 18.764C53.7103 19.46 54.2263 19.988 54.8743 20.348C55.5223 20.708 56.2423 20.888 57.0343 20.888C57.8263 20.888 58.5583 20.684 59.2303 20.276C59.9023 19.844 60.4663 19.172 60.9223 18.26L66.2143 20.96C65.5423 22.664 64.4023 23.984 62.7943 24.92C61.1863 25.856 59.2783 26.324 57.0703 26.324ZM80.7058 26V22.364L80.2378 21.464V14.768C80.2378 13.688 79.9018 12.86 79.2298 12.284C78.5818 11.684 77.5378 11.384 76.0977 11.384C75.1618 11.384 74.2138 11.54 73.2538 11.852C72.2938 12.14 71.4778 12.548 70.8058 13.076L68.5018 8.432C69.6058 7.712 70.9258 7.16 72.4618 6.776C74.0218 6.368 75.5698 6.164 77.1058 6.164C80.2738 6.164 82.7218 6.896 84.4498 8.36C86.2018 9.8 87.0778 12.068 87.0778 15.164V26H80.7058ZM74.9458 26.324C73.3858 26.324 72.0658 26.06 70.9858 25.532C69.9058 25.004 69.0778 24.284 68.5018 23.372C67.9498 22.46 67.6738 21.44 67.6738 20.312C67.6738 19.112 67.9738 18.08 68.5738 17.216C69.1978 16.328 70.1458 15.656 71.4178 15.2C72.6898 14.72 74.3338 14.48 76.3498 14.48H80.9578V18.044H77.2858C76.1818 18.044 75.4018 18.224 74.9458 18.584C74.5138 18.944 74.2978 19.424 74.2978 20.024C74.2978 20.624 74.5258 21.104 74.9818 21.464C75.4378 21.824 76.0618 22.004 76.8538 22.004C77.5978 22.004 78.2698 21.824 78.8698 21.464C79.4938 21.08 79.9498 20.504 80.2378 19.736L81.1738 22.256C80.8138 23.6 80.1058 24.62 79.0498 25.316C78.0178 25.988 76.6498 26.324 74.9458 26.324ZM116.811 6.164C118.323 6.164 119.667 6.476 120.843 7.1C122.043 7.7 122.979 8.636 123.651 9.908C124.347 11.18 124.695 12.824 124.695 14.84V26H117.855V15.956C117.855 14.564 117.591 13.556 117.063 12.932C116.535 12.284 115.815 11.96 114.903 11.96C114.255 11.96 113.667 12.116 113.139 12.428C112.611 12.74 112.203 13.22 111.915 13.868C111.627 14.492 111.483 15.308 111.483 16.316V26H104.643V15.956C104.643 14.564 104.379 13.556 103.851 12.932C103.347 12.284 102.627 11.96 101.691 11.96C101.019 11.96 100.419 12.116 99.8912 12.428C99.3872 12.74 98.9792 13.22 98.6672 13.868C98.3792 14.492 98.2352 15.308 98.2352 16.316V26H91.3952V6.488H97.9112V11.924L96.6152 10.376C97.3352 8.984 98.3192 7.94 99.5672 7.244C100.815 6.524 102.207 6.164 103.743 6.164C105.495 6.164 107.031 6.62 108.351 7.532C109.695 8.42 110.595 9.812 111.051 11.708L108.819 11.24C109.515 9.656 110.559 8.42 111.951 7.532C113.367 6.62 114.987 6.164 116.811 6.164ZM139.051 26.324C136.915 26.324 135.019 25.892 133.363 25.028C131.707 24.164 130.399 22.976 129.438 21.464C128.503 19.928 128.035 18.176 128.035 16.208C128.035 14.24 128.503 12.5 129.438 10.988C130.399 9.476 131.707 8.3 133.363 7.46C135.019 6.596 136.915 6.164 139.051 6.164C141.187 6.164 143.083 6.596 144.739 7.46C146.419 8.3 147.727 9.476 148.663 10.988C149.599 12.5 150.067 14.24 150.067 16.208C150.067 18.176 149.599 19.928 148.663 21.464C147.727 22.976 146.419 24.164 144.739 25.028C143.083 25.892 141.187 26.324 139.051 26.324ZM139.051 20.888C139.843 20.888 140.539 20.708 141.139 20.348C141.763 19.988 142.255 19.46 142.615 18.764C142.975 18.044 143.155 17.192 143.155 16.208C143.155 15.224 142.975 14.396 142.615 13.724C142.255 13.028 141.763 12.5 141.139 12.14C140.539 11.78 139.843 11.6 139.051 11.6C138.283 11.6 137.587 11.78 136.963 12.14C136.363 12.5 135.871 13.028 135.487 13.724C135.127 14.396 134.947 15.224 134.947 16.208C134.947 17.192 135.127 18.044 135.487 18.764C135.871 19.46 136.363 19.988 136.963 20.348C137.587 20.708 138.283 20.888 139.051 20.888ZM153.235 26V6.488H159.751V12.176L158.779 10.556C159.355 9.092 160.291 8 161.587 7.28C162.883 6.536 164.455 6.164 166.303 6.164V12.32C165.991 12.272 165.715 12.248 165.475 12.248C165.259 12.224 165.019 12.212 164.755 12.212C163.363 12.212 162.235 12.596 161.371 13.364C160.507 14.108 160.075 15.332 160.075 17.036V26H153.235ZM179.174 26.324C176.87 26.324 174.854 25.892 173.126 25.028C171.422 24.14 170.09 22.94 169.13 21.428C168.194 19.892 167.726 18.152 167.726 16.208C167.726 14.264 168.182 12.536 169.094 11.024C170.03 9.488 171.314 8.3 172.946 7.46C174.578 6.596 176.414 6.164 178.454 6.164C180.374 6.164 182.126 6.56 183.71 7.352C185.294 8.12 186.554 9.26 187.49 10.772C188.426 12.284 188.894 14.12 188.894 16.28C188.894 16.52 188.882 16.796 188.858 17.108C188.834 17.42 188.81 17.708 188.786 17.972H173.342V14.372H185.15L182.558 15.38C182.582 14.492 182.414 13.724 182.054 13.076C181.718 12.428 181.238 11.924 180.614 11.564C180.014 11.204 179.306 11.024 178.49 11.024C177.674 11.024 176.954 11.204 176.33 11.564C175.73 11.924 175.262 12.44 174.926 13.112C174.59 13.76 174.422 14.528 174.422 15.416V16.46C174.422 17.42 174.614 18.248 174.998 18.944C175.406 19.64 175.982 20.18 176.726 20.564C177.47 20.924 178.358 21.104 179.39 21.104C180.35 21.104 181.166 20.972 181.838 20.708C182.534 20.42 183.218 19.988 183.89 19.412L187.49 23.156C186.554 24.188 185.402 24.98 184.034 25.532C182.666 26.06 181.046 26.324 179.174 26.324Z" fill="white"/>
</svg>
