<svg width="189" height="48" viewBox="0 0 189 48" fill="none" xmlns="http://www.w3.org/2000/svg">
<path d="M10.7862 26.504C8.72216 26.504 6.73016 26.252 4.81016 25.748C2.91416 25.22 1.36616 24.548 0.166156 23.732L2.50616 18.476C3.63416 19.196 4.93016 19.796 6.39416 20.276C7.88216 20.732 9.35816 20.96 10.8222 20.96C11.8062 20.96 12.5982 20.876 13.1982 20.708C13.7982 20.516 14.2302 20.276 14.4942 19.988C14.7822 19.676 14.9262 19.316 14.9262 18.908C14.9262 18.332 14.6622 17.876 14.1342 17.54C13.6062 17.204 12.9222 16.928 12.0822 16.712C11.2422 16.496 10.3062 16.28 9.27416 16.064C8.26616 15.848 7.24616 15.572 6.21416 15.236C5.20616 14.9 4.28216 14.468 3.44216 13.94C2.60216 13.388 1.91816 12.68 1.39016 11.816C0.862156 10.928 0.598156 9.812 0.598156 8.468C0.598156 6.956 1.00616 5.588 1.82216 4.364C2.66216 3.14 3.91016 2.156 5.56616 1.412C7.22216 0.667999 9.28616 0.295998 11.7582 0.295998C13.4142 0.295998 15.0342 0.487999 16.6182 0.872C18.2262 1.232 19.6542 1.772 20.9022 2.492L18.7062 7.784C17.5062 7.136 16.3182 6.656 15.1422 6.344C13.9662 6.008 12.8262 5.84 11.7222 5.84C10.7382 5.84 9.94616 5.948 9.34616 6.164C8.74616 6.356 8.31416 6.62 8.05016 6.956C7.78616 7.292 7.65416 7.676 7.65416 8.108C7.65416 8.66 7.90616 9.104 8.41016 9.44C8.93816 9.752 9.62216 10.016 10.4622 10.232C11.3262 10.424 12.2622 10.628 13.2702 10.844C14.3022 11.06 15.3222 11.336 16.3302 11.672C17.3622 11.984 18.2982 12.416 19.1382 12.968C19.9782 13.496 20.6502 14.204 21.1542 15.092C21.6822 15.956 21.9462 17.048 21.9462 18.368C21.9462 19.832 21.5262 21.188 20.6862 22.436C19.8702 23.66 18.6342 24.644 16.9782 25.388C15.3462 26.132 13.2822 26.504 10.7862 26.504ZM27.9112 33.308C26.8792 33.308 25.8352 33.14 24.7792 32.804C23.7472 32.492 22.9072 32.072 22.2592 31.544L24.6352 26.756C25.0432 27.116 25.5112 27.392 26.0392 27.584C26.5912 27.8 27.1312 27.908 27.6592 27.908C28.4032 27.908 28.9912 27.74 29.4232 27.404C29.8552 27.068 30.2272 26.54 30.5392 25.82L31.4392 23.552L31.9792 22.868L38.6032 6.488H45.1192L36.6952 26.792C36.0232 28.472 35.2432 29.78 34.3552 30.716C33.4912 31.676 32.5192 32.348 31.4392 32.732C30.3832 33.116 29.2072 33.308 27.9112 33.308ZM30.5752 26.828L21.9712 6.488H28.9912L35.3272 22.256L30.5752 26.828ZM56.3321 26.324C54.1721 26.324 52.2401 25.892 50.5361 25.028C48.8561 24.164 47.5361 22.976 46.5761 21.464C45.6161 19.928 45.1361 18.176 45.1361 16.208C45.1361 14.24 45.6161 12.5 46.5761 10.988C47.5361 9.476 48.8561 8.3 50.5361 7.46C52.2401 6.596 54.1721 6.164 56.3321 6.164C58.5401 6.164 60.4481 6.632 62.0561 7.568C63.6641 8.504 64.8041 9.824 65.4761 11.528L60.1841 14.228C59.7281 13.316 59.1641 12.656 58.4921 12.248C57.8201 11.816 57.0881 11.6 56.2961 11.6C55.5041 11.6 54.7841 11.78 54.1361 12.14C53.4881 12.5 52.9721 13.028 52.5881 13.724C52.2281 14.396 52.0481 15.224 52.0481 16.208C52.0481 17.216 52.2281 18.068 52.5881 18.764C52.9721 19.46 53.4881 19.988 54.1361 20.348C54.7841 20.708 55.5041 20.888 56.2961 20.888C57.0881 20.888 57.8201 20.684 58.4921 20.276C59.1641 19.844 59.7281 19.172 60.1841 18.26L65.4761 20.96C64.8041 22.664 63.6641 23.984 62.0561 24.92C60.4481 25.856 58.5401 26.324 56.3321 26.324ZM79.9675 26V22.364L79.4995 21.464V14.768C79.4995 13.688 79.1635 12.86 78.4915 12.284C77.8435 11.684 76.7995 11.384 75.3595 11.384C74.4235 11.384 73.4755 11.54 72.5155 11.852C71.5555 12.14 70.7395 12.548 70.0675 13.076L67.7635 8.432C68.8675 7.712 70.1875 7.16 71.7235 6.776C73.2835 6.368 74.8315 6.164 76.3675 6.164C79.5355 6.164 81.9835 6.896 83.7115 8.36C85.4635 9.8 86.3395 12.068 86.3395 15.164V26H79.9675ZM74.2075 26.324C72.6475 26.324 71.3275 26.06 70.2475 25.532C69.1675 25.004 68.3395 24.284 67.7635 23.372C67.2115 22.46 66.9355 21.44 66.9355 20.312C66.9355 19.112 67.2355 18.08 67.8355 17.216C68.4595 16.328 69.4075 15.656 70.6795 15.2C71.9515 14.72 73.5955 14.48 75.6115 14.48H80.2195V18.044H76.5475C75.4435 18.044 74.6635 18.224 74.2075 18.584C73.7755 18.944 73.5595 19.424 73.5595 20.024C73.5595 20.624 73.7875 21.104 74.2435 21.464C74.6995 21.824 75.3235 22.004 76.1155 22.004C76.8595 22.004 77.5315 21.824 78.1315 21.464C78.7555 21.08 79.2115 20.504 79.4995 19.736L80.4355 22.256C80.0755 23.6 79.3675 24.62 78.3115 25.316C77.2795 25.988 75.9115 26.324 74.2075 26.324ZM116.073 6.164C117.585 6.164 118.929 6.476 120.105 7.1C121.305 7.7 122.241 8.636 122.913 9.908C123.609 11.18 123.957 12.824 123.957 14.84V26H117.117V15.956C117.117 14.564 116.853 13.556 116.325 12.932C115.797 12.284 115.077 11.96 114.165 11.96C113.517 11.96 112.929 12.116 112.401 12.428C111.873 12.74 111.465 13.22 111.177 13.868C110.889 14.492 110.745 15.308 110.745 16.316V26H103.905V15.956C103.905 14.564 103.641 13.556 103.113 12.932C102.609 12.284 101.889 11.96 100.953 11.96C100.281 11.96 99.6809 12.116 99.1529 12.428C98.6489 12.74 98.2409 13.22 97.9289 13.868C97.6409 14.492 97.4969 15.308 97.4969 16.316V26H90.6569V6.488H97.1729V11.924L95.8769 10.376C96.5969 8.984 97.5809 7.94 98.8289 7.244C100.077 6.524 101.469 6.164 103.005 6.164C104.757 6.164 106.293 6.62 107.613 7.532C108.957 8.42 109.857 9.812 110.313 11.708L108.081 11.24C108.777 9.656 109.821 8.42 111.213 7.532C112.629 6.62 114.249 6.164 116.073 6.164ZM138.312 26.324C136.176 26.324 134.28 25.892 132.624 25.028C130.968 24.164 129.66 22.976 128.7 21.464C127.764 19.928 127.296 18.176 127.296 16.208C127.296 14.24 127.764 12.5 128.7 10.988C129.66 9.476 130.968 8.3 132.624 7.46C134.28 6.596 136.176 6.164 138.312 6.164C140.448 6.164 142.344 6.596 144 7.46C145.68 8.3 146.988 9.476 147.924 10.988C148.86 12.5 149.328 14.24 149.328 16.208C149.328 18.176 148.86 19.928 147.924 21.464C146.988 22.976 145.68 24.164 144 25.028C142.344 25.892 140.448 26.324 138.312 26.324ZM138.312 20.888C139.104 20.888 139.8 20.708 140.4 20.348C141.024 19.988 141.516 19.46 141.876 18.764C142.236 18.044 142.416 17.192 142.416 16.208C142.416 15.224 142.236 14.396 141.876 13.724C141.516 13.028 141.024 12.5 140.4 12.14C139.8 11.78 139.104 11.6 138.312 11.6C137.544 11.6 136.848 11.78 136.224 12.14C135.624 12.5 135.132 13.028 134.748 13.724C134.388 14.396 134.208 15.224 134.208 16.208C134.208 17.192 134.388 18.044 134.748 18.764C135.132 19.46 135.624 19.988 136.224 20.348C136.848 20.708 137.544 20.888 138.312 20.888ZM152.497 26V6.488H159.013V12.176L158.041 10.556C158.617 9.092 159.553 8 160.849 7.28C162.145 6.536 163.717 6.164 165.565 6.164V12.32C165.253 12.272 164.977 12.248 164.737 12.248C164.521 12.224 164.281 12.212 164.017 12.212C162.625 12.212 161.497 12.596 160.633 13.364C159.769 14.108 159.337 15.332 159.337 17.036V26H152.497ZM178.436 26.324C176.132 26.324 174.116 25.892 172.388 25.028C170.684 24.14 169.352 22.94 168.392 21.428C167.456 19.892 166.988 18.152 166.988 16.208C166.988 14.264 167.444 12.536 168.356 11.024C169.292 9.488 170.576 8.3 172.208 7.46C173.84 6.596 175.676 6.164 177.716 6.164C179.636 6.164 181.388 6.56 182.972 7.352C184.556 8.12 185.816 9.26 186.752 10.772C187.688 12.284 188.156 14.12 188.156 16.28C188.156 16.52 188.144 16.796 188.12 17.108C188.096 17.42 188.072 17.708 188.048 17.972H172.604V14.372H184.412L181.82 15.38C181.844 14.492 181.676 13.724 181.316 13.076C180.98 12.428 180.5 11.924 179.876 11.564C179.276 11.204 178.568 11.024 177.752 11.024C176.936 11.024 176.216 11.204 175.592 11.564C174.992 11.924 174.524 12.44 174.188 13.112C173.852 13.76 173.684 14.528 173.684 15.416V16.46C173.684 17.42 173.876 18.248 174.26 18.944C174.668 19.64 175.244 20.18 175.988 20.564C176.732 20.924 177.62 21.104 178.652 21.104C179.612 21.104 180.428 20.972 181.1 20.708C181.796 20.42 182.48 19.988 183.152 19.412L186.752 23.156C185.816 24.188 184.664 24.98 183.296 25.532C181.928 26.06 180.308 26.324 178.436 26.324ZM47.056 47.045C46.276 47.045 45.531 46.955 44.821 46.775C44.121 46.595 43.521 46.33 43.021 45.98L44.056 43.985C44.396 44.255 44.816 44.465 45.316 44.615C45.826 44.775 46.321 44.855 46.801 44.855C47.571 44.855 48.126 44.685 48.466 44.345C48.806 44.015 48.976 43.53 48.976 42.89V41.93L49.126 39.65L49.111 37.355V35.87H51.826V42.515C51.826 44.055 51.411 45.195 50.581 45.935C49.751 46.675 48.576 47.045 47.056 47.045ZM46.561 43.58C45.841 43.58 45.176 43.42 44.566 43.1C43.966 42.77 43.481 42.315 43.111 41.735C42.751 41.145 42.571 40.45 42.571 39.65C42.571 38.85 42.751 38.16 43.111 37.58C43.481 36.99 43.966 36.535 44.566 36.215C45.176 35.895 45.841 35.735 46.561 35.735C47.251 35.735 47.841 35.875 48.331 36.155C48.821 36.425 49.191 36.85 49.441 37.43C49.701 38.01 49.831 38.75 49.831 39.65C49.831 40.55 49.701 41.29 49.441 41.87C49.191 42.45 48.821 42.88 48.331 43.16C47.841 43.44 47.251 43.58 46.561 43.58ZM47.236 41.315C47.576 41.315 47.876 41.245 48.136 41.105C48.406 40.965 48.616 40.77 48.766 40.52C48.926 40.27 49.006 39.98 49.006 39.65C49.006 39.32 48.926 39.03 48.766 38.78C48.616 38.53 48.406 38.34 48.136 38.21C47.876 38.07 47.576 38 47.236 38C46.896 38 46.591 38.07 46.321 38.21C46.051 38.34 45.836 38.53 45.676 38.78C45.526 39.03 45.451 39.32 45.451 39.65C45.451 39.98 45.526 40.27 45.676 40.52C45.836 40.77 46.051 40.965 46.321 41.105C46.591 41.245 46.896 41.315 47.236 41.315ZM53.6572 44V35.87H56.3722V38.24L55.9672 37.565C56.2072 36.955 56.5972 36.5 57.1372 36.2C57.6772 35.89 58.3322 35.735 59.1022 35.735V38.3C58.9722 38.28 58.8572 38.27 58.7572 38.27C58.6672 38.26 58.5672 38.255 58.4572 38.255C57.8772 38.255 57.4072 38.415 57.0472 38.735C56.6872 39.045 56.5072 39.555 56.5072 40.265V44H53.6572ZM64.285 44.135C63.395 44.135 62.605 43.955 61.915 43.595C61.225 43.235 60.68 42.74 60.28 42.11C59.89 41.47 59.695 40.74 59.695 39.92C59.695 39.1 59.89 38.375 60.28 37.745C60.68 37.115 61.225 36.625 61.915 36.275C62.605 35.915 63.395 35.735 64.285 35.735C65.175 35.735 65.965 35.915 66.655 36.275C67.355 36.625 67.9 37.115 68.29 37.745C68.68 38.375 68.875 39.1 68.875 39.92C68.875 40.74 68.68 41.47 68.29 42.11C67.9 42.74 67.355 43.235 66.655 43.595C65.965 43.955 65.175 44.135 64.285 44.135ZM64.285 41.87C64.615 41.87 64.905 41.795 65.155 41.645C65.415 41.495 65.62 41.275 65.77 40.985C65.92 40.685 65.995 40.33 65.995 39.92C65.995 39.51 65.92 39.165 65.77 38.885C65.62 38.595 65.415 38.375 65.155 38.225C64.905 38.075 64.615 38 64.285 38C63.965 38 63.675 38.075 63.415 38.225C63.165 38.375 62.96 38.595 62.8 38.885C62.65 39.165 62.575 39.51 62.575 39.92C62.575 40.33 62.65 40.685 62.8 40.985C62.96 41.275 63.165 41.495 63.415 41.645C63.675 41.795 63.965 41.87 64.285 41.87ZM71.9105 44L69.0155 35.87H71.7155L74.0105 42.665H72.7205L75.1055 35.87H77.5355L79.8305 42.665H78.5705L80.9405 35.87H83.4455L80.5505 44H77.7905L75.8405 38.375H76.6805L74.6705 44H71.9105ZM92.9416 44.135C91.9816 44.135 91.1416 43.955 90.4216 43.595C89.7116 43.225 89.1566 42.725 88.7566 42.095C88.3666 41.455 88.1716 40.73 88.1716 39.92C88.1716 39.11 88.3616 38.39 88.7416 37.76C89.1316 37.12 89.6666 36.625 90.3466 36.275C91.0266 35.915 91.7916 35.735 92.6416 35.735C93.4416 35.735 94.1716 35.9 94.8316 36.23C95.4916 36.55 96.0166 37.025 96.4066 37.655C96.7966 38.285 96.9916 39.05 96.9916 39.95C96.9916 40.05 96.9866 40.165 96.9766 40.295C96.9666 40.425 96.9566 40.545 96.9466 40.655H90.5116V39.155H95.4316L94.3516 39.575C94.3616 39.205 94.2916 38.885 94.1416 38.615C94.0016 38.345 93.8016 38.135 93.5416 37.985C93.2916 37.835 92.9966 37.76 92.6566 37.76C92.3166 37.76 92.0166 37.835 91.7566 37.985C91.5066 38.135 91.3116 38.35 91.1716 38.63C91.0316 38.9 90.9616 39.22 90.9616 39.59V40.025C90.9616 40.425 91.0416 40.77 91.2016 41.06C91.3716 41.35 91.6116 41.575 91.9216 41.735C92.2316 41.885 92.6016 41.96 93.0316 41.96C93.4316 41.96 93.7716 41.905 94.0516 41.795C94.3416 41.675 94.6266 41.495 94.9066 41.255L96.4066 42.815C96.0166 43.245 95.5366 43.575 94.9666 43.805C94.3966 44.025 93.7216 44.135 92.9416 44.135ZM98.3056 44V32.87H101.156V44H98.3056ZM107.268 44.135C106.308 44.135 105.468 43.955 104.748 43.595C104.038 43.225 103.483 42.725 103.083 42.095C102.693 41.455 102.498 40.73 102.498 39.92C102.498 39.11 102.688 38.39 103.068 37.76C103.458 37.12 103.993 36.625 104.673 36.275C105.353 35.915 106.118 35.735 106.968 35.735C107.768 35.735 108.498 35.9 109.158 36.23C109.818 36.55 110.343 37.025 110.733 37.655C111.123 38.285 111.318 39.05 111.318 39.95C111.318 40.05 111.313 40.165 111.303 40.295C111.293 40.425 111.283 40.545 111.273 40.655H104.838V39.155H109.758L108.678 39.575C108.688 39.205 108.618 38.885 108.468 38.615C108.328 38.345 108.128 38.135 107.868 37.985C107.618 37.835 107.323 37.76 106.983 37.76C106.643 37.76 106.343 37.835 106.083 37.985C105.833 38.135 105.638 38.35 105.498 38.63C105.358 38.9 105.288 39.22 105.288 39.59V40.025C105.288 40.425 105.368 40.77 105.528 41.06C105.698 41.35 105.938 41.575 106.248 41.735C106.558 41.885 106.928 41.96 107.358 41.96C107.758 41.96 108.098 41.905 108.378 41.795C108.668 41.675 108.953 41.495 109.233 41.255L110.733 42.815C110.343 43.245 109.863 43.575 109.293 43.805C108.723 44.025 108.048 44.135 107.268 44.135ZM116.787 44.135C115.887 44.135 115.082 43.955 114.372 43.595C113.672 43.235 113.122 42.74 112.722 42.11C112.322 41.47 112.122 40.74 112.122 39.92C112.122 39.1 112.322 38.375 112.722 37.745C113.122 37.115 113.672 36.625 114.372 36.275C115.082 35.915 115.887 35.735 116.787 35.735C117.707 35.735 118.502 35.93 119.172 36.32C119.842 36.71 120.317 37.26 120.597 37.97L118.392 39.095C118.202 38.715 117.967 38.44 117.687 38.27C117.407 38.09 117.102 38 116.772 38C116.442 38 116.142 38.075 115.872 38.225C115.602 38.375 115.387 38.595 115.227 38.885C115.077 39.165 115.002 39.51 115.002 39.92C115.002 40.34 115.077 40.695 115.227 40.985C115.387 41.275 115.602 41.495 115.872 41.645C116.142 41.795 116.442 41.87 116.772 41.87C117.102 41.87 117.407 41.785 117.687 41.615C117.967 41.435 118.202 41.155 118.392 40.775L120.597 41.9C120.317 42.61 119.842 43.16 119.172 43.55C118.502 43.94 117.707 44.135 116.787 44.135ZM125.432 44.135C124.392 44.135 123.582 43.88 123.002 43.37C122.422 42.85 122.132 42.07 122.132 41.03V34.055H124.982V41C124.982 41.29 125.062 41.52 125.222 41.69C125.382 41.85 125.587 41.93 125.837 41.93C126.177 41.93 126.467 41.845 126.707 41.675L127.412 43.67C127.172 43.83 126.877 43.945 126.527 44.015C126.177 44.095 125.812 44.135 125.432 44.135ZM120.947 38.3V36.17H126.842V38.3H120.947ZM128.511 44V35.87H131.226V38.24L130.821 37.565C131.061 36.955 131.451 36.5 131.991 36.2C132.531 35.89 133.186 35.735 133.956 35.735V38.3C133.826 38.28 133.711 38.27 133.611 38.27C133.521 38.26 133.421 38.255 133.311 38.255C132.731 38.255 132.261 38.415 131.901 38.735C131.541 39.045 131.361 39.555 131.361 40.265V44H128.511ZM135.132 44V35.87H137.982V44H135.132ZM136.557 34.97C136.037 34.97 135.617 34.825 135.297 34.535C134.977 34.245 134.817 33.885 134.817 33.455C134.817 33.025 134.977 32.665 135.297 32.375C135.617 32.085 136.037 31.94 136.557 31.94C137.077 31.94 137.497 32.08 137.817 32.36C138.137 32.63 138.297 32.98 138.297 33.41C138.297 33.86 138.137 34.235 137.817 34.535C137.507 34.825 137.087 34.97 136.557 34.97ZM143.989 44.135C143.089 44.135 142.284 43.955 141.574 43.595C140.874 43.235 140.324 42.74 139.924 42.11C139.524 41.47 139.324 40.74 139.324 39.92C139.324 39.1 139.524 38.375 139.924 37.745C140.324 37.115 140.874 36.625 141.574 36.275C142.284 35.915 143.089 35.735 143.989 35.735C144.909 35.735 145.704 35.93 146.374 36.32C147.044 36.71 147.519 37.26 147.799 37.97L145.594 39.095C145.404 38.715 145.169 38.44 144.889 38.27C144.609 38.09 144.304 38 143.974 38C143.644 38 143.344 38.075 143.074 38.225C142.804 38.375 142.589 38.595 142.429 38.885C142.279 39.165 142.204 39.51 142.204 39.92C142.204 40.34 142.279 40.695 142.429 40.985C142.589 41.275 142.804 41.495 143.074 41.645C143.344 41.795 143.644 41.87 143.974 41.87C144.304 41.87 144.609 41.785 144.889 41.615C145.169 41.435 145.404 41.155 145.594 40.775L147.799 41.9C147.519 42.61 147.044 43.16 146.374 43.55C145.704 43.94 144.909 44.135 143.989 44.135ZM153.447 40.175L152.892 33.5H156.282L155.712 40.175H153.447ZM154.587 44.135C154.087 44.135 153.677 43.98 153.357 43.67C153.037 43.36 152.877 42.99 152.877 42.56C152.877 42.12 153.037 41.755 153.357 41.465C153.677 41.165 154.087 41.015 154.587 41.015C155.087 41.015 155.492 41.165 155.802 41.465C156.122 41.755 156.282 42.12 156.282 42.56C156.282 42.99 156.122 43.36 155.802 43.67C155.492 43.98 155.087 44.135 154.587 44.135Z" fill="white"/>
</svg>
