<svg width="60" height="58" viewBox="0 0 60 58" fill="none" xmlns="http://www.w3.org/2000/svg">
<rect width="60" height="58" rx="15" fill="#EAF1FF"/>
<path d="M30.0007 40.6668C36.444 40.6668 41.6673 35.4435 41.6673 29.0002C41.6673 22.5568 36.444 17.3335 30.0007 17.3335C23.5573 17.3335 18.334 22.5568 18.334 29.0002C18.334 35.4435 23.5573 40.6668 30.0007 40.6668Z" stroke="black" stroke-width="2" stroke-linecap="round" stroke-linejoin="round"/>
<path d="M30.0007 33.6668C32.578 33.6668 34.6673 31.5775 34.6673 29.0002C34.6673 26.4228 32.578 24.3335 30.0007 24.3335C27.4233 24.3335 25.334 26.4228 25.334 29.0002C25.334 31.5775 27.4233 33.6668 30.0007 33.6668Z" stroke="black" stroke-width="2" stroke-linecap="round" stroke-linejoin="round"/>
<path d="M21.752 20.7515L26.6986 25.6981" stroke="black" stroke-width="2" stroke-linecap="round" stroke-linejoin="round"/>
<path d="M33.3008 32.3018L38.2474 37.2484" stroke="black" stroke-width="2" stroke-linecap="round" stroke-linejoin="round"/>
<path d="M33.3008 25.6981L38.2474 20.7515" stroke="black" stroke-width="2" stroke-linecap="round" stroke-linejoin="round"/>
<path d="M33.3008 25.6984L37.4191 21.5801" stroke="black" stroke-width="2" stroke-linecap="round" stroke-linejoin="round"/>
<path d="M21.752 37.2484L26.6986 32.3018" stroke="black" stroke-width="2" stroke-linecap="round" stroke-linejoin="round"/>
</svg>
