<svg width="232" height="70" viewBox="0 0 232 70" fill="none" xmlns="http://www.w3.org/2000/svg">
<path d="M20.4545 10.517C20.3182 9.14205 19.733 8.07387 18.6989 7.3125C17.6648 6.55114 16.2614 6.17046 14.4886 6.17046C13.2841 6.17046 12.267 6.34091 11.4375 6.68182C10.608 7.01137 9.97159 7.47159 9.52841 8.0625C9.09659 8.65341 8.88068 9.32387 8.88068 10.0739C8.85796 10.6989 8.98864 11.2443 9.27273 11.7102C9.56818 12.1761 9.97159 12.5795 10.483 12.9205C10.9943 13.25 11.5852 13.5398 12.2557 13.7898C12.9261 14.0284 13.642 14.233 14.4034 14.4034L17.5398 15.1534C19.0625 15.4943 20.4602 15.9489 21.733 16.517C23.0057 17.0852 24.108 17.7841 25.0398 18.6136C25.9716 19.4432 26.6932 20.4205 27.2045 21.5455C27.7273 22.6705 27.9943 23.9602 28.0057 25.4148C27.9943 27.5511 27.4489 29.4034 26.3693 30.9716C25.3011 32.5284 23.7557 33.7386 21.733 34.6023C19.7216 35.4545 17.2955 35.8807 14.4545 35.8807C11.6364 35.8807 9.18182 35.4489 7.09091 34.5852C5.01137 33.7216 3.38637 32.4432 2.21591 30.75C1.05682 29.0455 0.448865 26.9375 0.392047 24.4261H7.53409C7.61364 25.5966 7.94887 26.5739 8.53977 27.358C9.14205 28.1307 9.94318 28.7159 10.9432 29.1136C11.9545 29.5 13.0966 29.6932 14.3693 29.6932C15.6193 29.6932 16.7045 29.5114 17.625 29.1477C18.5568 28.7841 19.2784 28.2784 19.7898 27.6307C20.3011 26.983 20.5568 26.2386 20.5568 25.3977C20.5568 24.6136 20.3239 23.9545 19.858 23.4205C19.4034 22.8864 18.733 22.4318 17.8466 22.0568C16.9716 21.6818 15.8977 21.3409 14.625 21.0341L10.8239 20.0795C7.88068 19.3636 5.55682 18.2443 3.85227 16.7216C2.14773 15.1989 1.30114 13.1477 1.3125 10.5682C1.30114 8.45455 1.86364 6.60796 3 5.02841C4.14773 3.44887 5.72159 2.21591 7.72159 1.32955C9.72159 0.443185 11.9943 2.86102e-06 14.5398 2.86102e-06C17.1307 2.86102e-06 19.392 0.443185 21.3239 1.32955C23.267 2.21591 24.7784 3.44887 25.858 5.02841C26.9375 6.60796 27.4943 8.4375 27.5284 10.517H20.4545ZM37.3168 45.2046C36.3963 45.2046 35.5327 45.1307 34.7259 44.983C33.9304 44.8466 33.2713 44.6705 32.7486 44.4545L34.3849 39.0341C35.2372 39.2955 36.0043 39.4375 36.6861 39.4602C37.3793 39.483 37.9759 39.3239 38.4759 38.983C38.9872 38.642 39.402 38.0625 39.7202 37.2443L40.1463 36.1364L30.7543 9.20455H38.3906L43.8111 28.4318H44.0838L49.5554 9.20455H57.2429L47.0668 38.2159C46.5781 39.625 45.9134 40.8523 45.0724 41.8977C44.2429 42.9545 43.1918 43.7671 41.919 44.3352C40.6463 44.9148 39.1122 45.2046 37.3168 45.2046ZM71.9446 35.8977C69.2628 35.8977 66.956 35.3295 65.0241 34.1932C63.1037 33.0455 61.6264 31.4545 60.5923 29.4205C59.5696 27.3864 59.0582 25.0455 59.0582 22.3977C59.0582 19.7159 59.5753 17.3636 60.6094 15.3409C61.6548 13.3068 63.1378 11.7216 65.0582 10.5852C66.9787 9.4375 69.2628 8.86364 71.9105 8.86364C74.1946 8.86364 76.1946 9.27841 77.9105 10.108C79.6264 10.9375 80.9844 12.1023 81.9844 13.6023C82.9844 15.1023 83.5355 16.8636 83.6378 18.8864H76.7855C76.5923 17.5795 76.081 16.5284 75.2514 15.733C74.4332 14.9261 73.3594 14.5227 72.0298 14.5227C70.9048 14.5227 69.9219 14.8295 69.081 15.4432C68.2514 16.0455 67.6037 16.9261 67.1378 18.0852C66.6719 19.2443 66.4389 20.6477 66.4389 22.2955C66.4389 23.9659 66.6662 25.3864 67.1207 26.5568C67.5866 27.7273 68.2401 28.6193 69.081 29.233C69.9219 29.8466 70.9048 30.1534 72.0298 30.1534C72.8594 30.1534 73.6037 29.983 74.2628 29.642C74.9332 29.3011 75.4844 28.8068 75.9162 28.1591C76.3594 27.5 76.6491 26.7102 76.7855 25.7898H83.6378C83.5241 27.7898 82.9787 29.5511 82.0014 31.0739C81.0355 32.5852 79.7003 33.767 77.9957 34.6193C76.2912 35.4716 74.2741 35.8977 71.9446 35.8977ZM95.7528 35.8807C94.0824 35.8807 92.5938 35.5909 91.2869 35.0114C89.9801 34.4205 88.946 33.5511 88.1847 32.4034C87.4347 31.2443 87.0597 29.8011 87.0597 28.0739C87.0597 26.6193 87.3267 25.3977 87.8608 24.4091C88.3949 23.4205 89.1222 22.625 90.0426 22.0227C90.9631 21.4205 92.0085 20.9659 93.179 20.6591C94.3608 20.3523 95.5994 20.1364 96.8949 20.0114C98.4176 19.8523 99.6449 19.7045 100.577 19.5682C101.509 19.4205 102.185 19.2045 102.605 18.9205C103.026 18.6364 103.236 18.2159 103.236 17.6591V17.5568C103.236 16.4773 102.895 15.642 102.213 15.0511C101.543 14.4602 100.588 14.1648 99.3494 14.1648C98.0426 14.1648 97.0028 14.4545 96.2301 15.0341C95.4574 15.6023 94.946 16.3182 94.696 17.1818L87.9801 16.6364C88.321 15.0455 88.9915 13.6705 89.9915 12.5114C90.9915 11.3409 92.2813 10.4432 93.8608 9.81818C95.4517 9.18182 97.2926 8.86364 99.3835 8.86364C100.838 8.86364 102.23 9.03409 103.56 9.375C104.901 9.71591 106.088 10.2443 107.122 10.9602C108.168 11.6761 108.991 12.5966 109.594 13.7216C110.196 14.8352 110.497 16.1705 110.497 17.7273V35.3864H103.611V31.7557H103.406C102.986 32.5739 102.423 33.2955 101.719 33.9205C101.014 34.5341 100.168 35.017 99.179 35.3693C98.1903 35.7102 97.0483 35.8807 95.7528 35.8807ZM97.8324 30.8693C98.9006 30.8693 99.8438 30.6591 100.662 30.2386C101.48 29.8068 102.122 29.2273 102.588 28.5C103.054 27.7727 103.287 26.9489 103.287 26.0284V23.25C103.06 23.3977 102.747 23.5341 102.349 23.6591C101.963 23.7727 101.526 23.8807 101.037 23.983C100.548 24.0739 100.06 24.1591 99.571 24.2386C99.0824 24.3068 98.6392 24.3693 98.2415 24.4261C97.3892 24.5511 96.6449 24.75 96.0085 25.0227C95.3722 25.2955 94.8778 25.6648 94.5256 26.1307C94.1733 26.5852 93.9972 27.1534 93.9972 27.8352C93.9972 28.8239 94.3551 29.5795 95.071 30.1023C95.7983 30.6136 96.7188 30.8693 97.8324 30.8693ZM116.131 35.3864V9.20455H123.051V13.8239H123.358C123.903 12.2898 124.813 11.0795 126.085 10.1932C127.358 9.30682 128.881 8.86364 130.653 8.86364C132.449 8.86364 133.977 9.3125 135.239 10.2102C136.5 11.0966 137.341 12.3011 137.761 13.8239H138.034C138.568 12.3239 139.534 11.125 140.932 10.2273C142.341 9.31819 144.006 8.86364 145.926 8.86364C148.369 8.86364 150.352 9.64205 151.875 11.1989C153.409 12.7443 154.176 14.9375 154.176 17.7784V35.3864H146.932V19.2102C146.932 17.7557 146.545 16.6648 145.773 15.9375C145 15.2102 144.034 14.8466 142.875 14.8466C141.557 14.8466 140.528 15.267 139.79 16.108C139.051 16.9375 138.682 18.0341 138.682 19.3977V35.3864H131.642V19.0568C131.642 17.7727 131.273 16.75 130.534 15.9886C129.807 15.2273 128.847 14.8466 127.653 14.8466C126.847 14.8466 126.119 15.0511 125.472 15.4602C124.835 15.858 124.33 16.4205 123.955 17.1477C123.58 17.8636 123.392 18.7045 123.392 19.6705V35.3864H116.131ZM171.741 35.8977C169.094 35.8977 166.804 35.3352 164.872 34.2102C162.952 33.0739 161.469 31.4943 160.423 29.4716C159.378 27.4375 158.855 25.0795 158.855 22.3977C158.855 19.6932 159.378 17.3295 160.423 15.3068C161.469 13.2727 162.952 11.6932 164.872 10.5682C166.804 9.43182 169.094 8.86364 171.741 8.86364C174.389 8.86364 176.673 9.43182 178.594 10.5682C180.526 11.6932 182.014 13.2727 183.06 15.3068C184.105 17.3295 184.628 19.6932 184.628 22.3977C184.628 25.0795 184.105 27.4375 183.06 29.4716C182.014 31.4943 180.526 33.0739 178.594 34.2102C176.673 35.3352 174.389 35.8977 171.741 35.8977ZM171.776 30.2727C172.98 30.2727 173.986 29.9318 174.793 29.25C175.599 28.5568 176.207 27.6136 176.616 26.4205C177.037 25.2273 177.247 23.8693 177.247 22.3466C177.247 20.8239 177.037 19.4659 176.616 18.2727C176.207 17.0795 175.599 16.1364 174.793 15.4432C173.986 14.75 172.98 14.4034 171.776 14.4034C170.56 14.4034 169.537 14.75 168.707 15.4432C167.889 16.1364 167.27 17.0795 166.849 18.2727C166.44 19.4659 166.236 20.8239 166.236 22.3466C166.236 23.8693 166.44 25.2273 166.849 26.4205C167.27 27.6136 167.889 28.5568 168.707 29.25C169.537 29.9318 170.56 30.2727 171.776 30.2727ZM189.349 35.3864V9.20455H196.389V13.7727H196.662C197.139 12.1477 197.94 10.9205 199.065 10.0909C200.19 9.25 201.486 8.82955 202.952 8.82955C203.315 8.82955 203.707 8.85228 204.128 8.89773C204.548 8.94319 204.918 9.00569 205.236 9.08523V15.5284C204.895 15.4261 204.423 15.3352 203.821 15.2557C203.219 15.1761 202.668 15.1364 202.168 15.1364C201.099 15.1364 200.145 15.3693 199.304 15.8352C198.474 16.2898 197.815 16.9261 197.327 17.7443C196.849 18.5625 196.611 19.5057 196.611 20.5739V35.3864H189.349ZM219.703 35.8977C217.01 35.8977 214.692 35.3523 212.749 34.2614C210.817 33.1591 209.328 31.6023 208.283 29.5909C207.237 27.5682 206.714 25.1761 206.714 22.4148C206.714 19.7216 207.237 17.358 208.283 15.3239C209.328 13.2898 210.8 11.7045 212.697 10.5682C214.607 9.43182 216.845 8.86364 219.413 8.86364C221.141 8.86364 222.749 9.14205 224.237 9.69887C225.737 10.2443 227.044 11.0682 228.158 12.1705C229.283 13.2727 230.158 14.6591 230.783 16.3295C231.408 17.9886 231.72 19.9318 231.72 22.1591V24.1534H209.612V19.6534H224.885C224.885 18.608 224.658 17.6818 224.203 16.875C223.749 16.0682 223.118 15.4375 222.311 14.983C221.516 14.517 220.589 14.2841 219.533 14.2841C218.43 14.2841 217.453 14.5398 216.601 15.0511C215.76 15.5511 215.101 16.2273 214.624 17.0795C214.146 17.9205 213.902 18.858 213.891 19.892V24.1705C213.891 25.4659 214.129 26.5852 214.607 27.5284C215.095 28.4716 215.783 29.1989 216.669 29.7102C217.555 30.2216 218.607 30.4773 219.822 30.4773C220.629 30.4773 221.368 30.3636 222.038 30.1364C222.709 29.9091 223.283 29.5682 223.76 29.1136C224.237 28.6591 224.601 28.1023 224.851 27.4432L231.567 27.8864C231.226 29.5 230.527 30.9091 229.47 32.1136C228.425 33.3068 227.072 34.2386 225.413 34.9091C223.766 35.5682 221.862 35.8977 219.703 35.8977ZM6.1875 64.3864H1.37091e-06V46.9318H6.23864C7.99432 46.9318 9.50568 47.2813 10.7727 47.9801C12.0398 48.6733 13.0142 49.6705 13.696 50.9716C14.3835 52.2727 14.7273 53.8295 14.7273 55.642C14.7273 57.4602 14.3835 59.0227 13.696 60.3295C13.0142 61.6364 12.0341 62.6392 10.7557 63.3381C9.48296 64.0369 7.96023 64.3864 6.1875 64.3864ZM3.69034 61.2244H6.03409C7.125 61.2244 8.04262 61.0313 8.78693 60.6449C9.53693 60.2528 10.0994 59.6477 10.4744 58.8295C10.8551 58.0057 11.0455 56.9432 11.0455 55.642C11.0455 54.3523 10.8551 53.2983 10.4744 52.4801C10.0994 51.6619 9.53977 51.0597 8.79546 50.6733C8.05114 50.2869 7.13352 50.0938 6.04262 50.0938H3.69034V61.2244ZM19.6342 69.2955C19.174 69.2955 18.7422 69.2585 18.3388 69.1847C17.9411 69.1165 17.6115 69.0284 17.3501 68.9205L18.1683 66.2102C18.5945 66.3409 18.978 66.4119 19.3189 66.4233C19.6655 66.4347 19.9638 66.3551 20.2138 66.1847C20.4695 66.0142 20.6768 65.7244 20.8359 65.3153L21.049 64.7614L16.353 51.2955H20.1712L22.8814 60.9091H23.0178L25.7536 51.2955H29.5973L24.5092 65.8011C24.2649 66.5057 23.9325 67.1193 23.5121 67.642C23.0973 68.1705 22.5717 68.5767 21.9354 68.8608C21.299 69.1506 20.532 69.2955 19.6342 69.2955ZM35.0859 56.8182V64.3864H31.4553V51.2955H34.9155V53.6051H35.0689C35.3587 52.8438 35.8445 52.2415 36.5263 51.7983C37.2081 51.3494 38.0348 51.125 39.0064 51.125C39.9155 51.125 40.7081 51.3239 41.3842 51.7216C42.0604 52.1193 42.5859 52.6875 42.9609 53.4261C43.3359 54.1591 43.5234 55.0341 43.5234 56.0511V64.3864H39.8928V56.6989C39.8984 55.8977 39.6939 55.2727 39.2791 54.8239C38.8643 54.3693 38.2933 54.142 37.5661 54.142C37.0774 54.142 36.6456 54.2472 36.2706 54.4574C35.9013 54.6676 35.6115 54.9744 35.4013 55.3778C35.1967 55.7756 35.0916 56.2557 35.0859 56.8182ZM50.1179 64.6335C49.2827 64.6335 48.5384 64.4886 47.8849 64.1989C47.2315 63.9034 46.7145 63.4688 46.3338 62.8949C45.9588 62.3153 45.7713 61.5938 45.7713 60.7301C45.7713 60.0028 45.9048 59.392 46.1719 58.8977C46.4389 58.4034 46.8026 58.0057 47.2628 57.7045C47.723 57.4034 48.2457 57.1761 48.831 57.0227C49.4219 56.8693 50.0412 56.7614 50.6889 56.6989C51.4503 56.6193 52.0639 56.5455 52.5298 56.4773C52.9957 56.4034 53.3338 56.2955 53.544 56.1534C53.7543 56.0114 53.8594 55.8011 53.8594 55.5227V55.4716C53.8594 54.9318 53.6889 54.5142 53.348 54.2188C53.0128 53.9233 52.5355 53.7756 51.9162 53.7756C51.2628 53.7756 50.7429 53.9205 50.3565 54.2102C49.9702 54.4943 49.7145 54.8523 49.5895 55.2841L46.2315 55.0114C46.402 54.2159 46.7372 53.5284 47.2372 52.9489C47.7372 52.3636 48.3821 51.9148 49.1719 51.6023C49.9673 51.2841 50.8878 51.125 51.9332 51.125C52.6605 51.125 53.3565 51.2102 54.0213 51.3807C54.6918 51.5511 55.2855 51.8153 55.8026 52.1733C56.3253 52.5313 56.7372 52.9915 57.0384 53.554C57.3395 54.1108 57.4901 54.7784 57.4901 55.5568V64.3864H54.0469V62.571H53.9446C53.7344 62.9801 53.4531 63.3409 53.1009 63.6534C52.7486 63.9602 52.3253 64.2017 51.831 64.3778C51.3366 64.5483 50.7656 64.6335 50.1179 64.6335ZM51.1577 62.1278C51.6918 62.1278 52.1634 62.0227 52.5724 61.8125C52.9815 61.5966 53.3026 61.3068 53.5355 60.9432C53.7685 60.5795 53.8849 60.1676 53.8849 59.7074V58.3182C53.7713 58.392 53.6151 58.4602 53.4162 58.5227C53.223 58.5795 53.0043 58.6335 52.7599 58.6847C52.5156 58.7301 52.2713 58.7727 52.027 58.8125C51.7827 58.8466 51.5611 58.8778 51.3622 58.9063C50.9361 58.9688 50.5639 59.0682 50.2457 59.2045C49.9276 59.3409 49.6804 59.5256 49.5043 59.7585C49.3281 59.9858 49.2401 60.2699 49.2401 60.6108C49.2401 61.1051 49.419 61.483 49.777 61.7443C50.1406 62 50.6009 62.1278 51.1577 62.1278ZM60.3068 64.3864V51.2955H63.767V53.6051H63.9205C64.1932 52.8381 64.6477 52.233 65.2841 51.7898C65.9205 51.3466 66.6818 51.125 67.5682 51.125C68.4659 51.125 69.2301 51.3494 69.8608 51.7983C70.4915 52.2415 70.9119 52.8438 71.1222 53.6051H71.2585C71.5256 52.8551 72.0085 52.2557 72.7074 51.8068C73.4119 51.3523 74.2443 51.125 75.2045 51.125C76.4261 51.125 77.4176 51.5142 78.179 52.2926C78.946 53.0653 79.3295 54.1619 79.3295 55.5824V64.3864H75.7074V56.2983C75.7074 55.571 75.5142 55.0256 75.1278 54.6619C74.7415 54.2983 74.2585 54.1165 73.679 54.1165C73.0199 54.1165 72.5057 54.3267 72.1364 54.7472C71.767 55.1619 71.5824 55.7102 71.5824 56.392V64.3864H68.0625V56.2216C68.0625 55.5795 67.8778 55.0682 67.5085 54.6875C67.1449 54.3068 66.6648 54.1165 66.0682 54.1165C65.6648 54.1165 65.3011 54.2188 64.9773 54.4233C64.6591 54.6222 64.4063 54.9034 64.2188 55.267C64.0313 55.625 63.9375 56.0455 63.9375 56.5284V64.3864H60.3068ZM82.1974 64.3864V51.2955H85.8281V64.3864H82.1974ZM84.0213 49.608C83.4815 49.608 83.0185 49.429 82.6321 49.071C82.2514 48.7074 82.0611 48.2727 82.0611 47.767C82.0611 47.267 82.2514 46.8381 82.6321 46.4801C83.0185 46.1165 83.4815 45.9347 84.0213 45.9347C84.5611 45.9347 85.0213 46.1165 85.402 46.4801C85.7884 46.8381 85.9815 47.267 85.9815 47.767C85.9815 48.2727 85.7884 48.7074 85.402 49.071C85.0213 49.429 84.5611 49.608 84.0213 49.608ZM94.6513 64.642C93.3104 64.642 92.157 64.358 91.1911 63.7898C90.2308 63.2159 89.4922 62.4205 88.9751 61.4034C88.4638 60.3864 88.2081 59.2159 88.2081 57.892C88.2081 56.5511 88.4666 55.375 88.9837 54.3636C89.5064 53.3466 90.2479 52.554 91.2081 51.9858C92.1683 51.4119 93.3104 51.125 94.6342 51.125C95.7763 51.125 96.7763 51.3324 97.6342 51.7472C98.4922 52.1619 99.1712 52.7443 99.6712 53.4943C100.171 54.2443 100.447 55.125 100.498 56.1364H97.0717C96.9751 55.483 96.7195 54.9574 96.3047 54.5597C95.8956 54.1563 95.3587 53.9545 94.6939 53.9545C94.1314 53.9545 93.6399 54.108 93.2195 54.4148C92.8047 54.7159 92.4808 55.1563 92.2479 55.7358C92.0149 56.3153 91.8984 57.017 91.8984 57.8409C91.8984 58.6761 92.0121 59.3864 92.2393 59.9716C92.4723 60.5568 92.799 61.0028 93.2195 61.3097C93.6399 61.6165 94.1314 61.7699 94.6939 61.7699C95.1087 61.7699 95.4808 61.6847 95.8104 61.5142C96.1456 61.3438 96.4212 61.0966 96.6371 60.7727C96.8587 60.4432 97.0036 60.0483 97.0717 59.5881H100.498C100.441 60.5881 100.168 61.4688 99.6797 62.2301C99.1967 62.9858 98.5291 63.5767 97.6768 64.0028C96.8246 64.429 95.8161 64.642 94.6513 64.642ZM113.714 55.0284L110.391 55.233C110.334 54.9489 110.212 54.6932 110.024 54.4659C109.837 54.233 109.589 54.0483 109.283 53.9119C108.982 53.7699 108.621 53.6989 108.2 53.6989C107.638 53.6989 107.163 53.8182 106.777 54.0568C106.391 54.2898 106.197 54.6023 106.197 54.9943C106.197 55.3068 106.322 55.571 106.572 55.7869C106.822 56.0028 107.251 56.1761 107.859 56.3068L110.229 56.7841C111.501 57.0455 112.45 57.4659 113.075 58.0455C113.7 58.625 114.013 59.3864 114.013 60.3295C114.013 61.1875 113.76 61.9403 113.254 62.5881C112.754 63.2358 112.067 63.7415 111.192 64.1051C110.322 64.4631 109.32 64.642 108.183 64.642C106.45 64.642 105.07 64.2813 104.041 63.5597C103.018 62.8324 102.419 61.8438 102.243 60.5938L105.814 60.4063C105.922 60.9347 106.183 61.3381 106.598 61.6165C107.013 61.8892 107.544 62.0256 108.192 62.0256C108.828 62.0256 109.339 61.9034 109.726 61.6591C110.118 61.4091 110.317 61.0881 110.322 60.696C110.317 60.3665 110.178 60.0966 109.905 59.8864C109.632 59.6705 109.212 59.5057 108.643 59.392L106.376 58.9403C105.098 58.6847 104.146 58.2415 103.521 57.6108C102.902 56.9801 102.592 56.1761 102.592 55.1989C102.592 54.358 102.82 53.6335 103.274 53.0256C103.734 52.4176 104.379 51.9489 105.209 51.6193C106.044 51.2898 107.021 51.125 108.141 51.125C109.794 51.125 111.095 51.4744 112.044 52.1733C112.999 52.8722 113.555 53.8239 113.714 55.0284Z" fill="#00C857"/>
</svg>
