<svg width="79" height="15" viewBox="0 0 79 15" fill="none" xmlns="http://www.w3.org/2000/svg">
<path d="M4.74 11.21C3.88 11.21 3.05 11.105 2.25 10.895C1.46 10.675 0.815 10.395 0.315 10.055L1.29 7.865C1.76 8.165 2.3 8.415 2.91 8.615C3.53 8.805 4.145 8.9 4.755 8.9C5.165 8.9 5.495 8.865 5.745 8.795C5.995 8.715 6.175 8.615 6.285 8.495C6.405 8.365 6.465 8.215 6.465 8.045C6.465 7.805 6.355 7.615 6.135 7.475C5.915 7.335 5.63 7.22 5.28 7.13C4.93 7.04 4.54 6.95 4.11 6.86C3.69 6.77 3.265 6.655 2.835 6.515C2.415 6.375 2.03 6.195 1.68 5.975C1.33 5.745 1.045 5.45 0.825 5.09C0.605 4.72 0.495 4.255 0.495 3.695C0.495 3.065 0.665 2.495 1.005 1.985C1.355 1.475 1.875 1.065 2.565 0.755C3.255 0.444999 4.115 0.289999 5.145 0.289999C5.835 0.289999 6.51 0.369999 7.17 0.53C7.84 0.68 8.435 0.904999 8.955 1.205L8.04 3.41C7.54 3.14 7.045 2.94 6.555 2.81C6.065 2.67 5.59 2.6 5.13 2.6C4.72 2.6 4.39 2.645 4.14 2.735C3.89 2.815 3.71 2.925 3.6 3.065C3.49 3.205 3.435 3.365 3.435 3.545C3.435 3.775 3.54 3.96 3.75 4.1C3.97 4.23 4.255 4.34 4.605 4.43C4.965 4.51 5.355 4.595 5.775 4.685C6.205 4.775 6.63 4.89 7.05 5.03C7.48 5.16 7.87 5.34 8.22 5.57C8.57 5.79 8.85 6.085 9.06 6.455C9.28 6.815 9.39 7.27 9.39 7.82C9.39 8.43 9.215 8.995 8.865 9.515C8.525 10.025 8.01 10.435 7.32 10.745C6.64 11.055 5.78 11.21 4.74 11.21ZM11.8754 14.045C11.4454 14.045 11.0104 13.975 10.5704 13.835C10.1404 13.705 9.79043 13.53 9.52043 13.31L10.5104 11.315C10.6804 11.465 10.8754 11.58 11.0954 11.66C11.3254 11.75 11.5504 11.795 11.7704 11.795C12.0804 11.795 12.3254 11.725 12.5054 11.585C12.6854 11.445 12.8404 11.225 12.9704 10.925L13.3454 9.98L13.5704 9.695L16.3304 2.87H19.0454L15.5354 11.33C15.2554 12.03 14.9304 12.575 14.5604 12.965C14.2004 13.365 13.7954 13.645 13.3454 13.805C12.9054 13.965 12.4154 14.045 11.8754 14.045ZM12.9854 11.345L9.40043 2.87H12.3254L14.9654 9.44L12.9854 11.345ZM23.7175 11.135C22.8175 11.135 22.0125 10.955 21.3025 10.595C20.6025 10.235 20.0525 9.74 19.6525 9.11C19.2525 8.47 19.0525 7.74 19.0525 6.92C19.0525 6.1 19.2525 5.375 19.6525 4.745C20.0525 4.115 20.6025 3.625 21.3025 3.275C22.0125 2.915 22.8175 2.735 23.7175 2.735C24.6375 2.735 25.4325 2.93 26.1025 3.32C26.7725 3.71 27.2475 4.26 27.5275 4.97L25.3225 6.095C25.1325 5.715 24.8975 5.44 24.6175 5.27C24.3375 5.09 24.0325 5 23.7025 5C23.3725 5 23.0725 5.075 22.8025 5.225C22.5325 5.375 22.3175 5.595 22.1575 5.885C22.0075 6.165 21.9325 6.51 21.9325 6.92C21.9325 7.34 22.0075 7.695 22.1575 7.985C22.3175 8.275 22.5325 8.495 22.8025 8.645C23.0725 8.795 23.3725 8.87 23.7025 8.87C24.0325 8.87 24.3375 8.785 24.6175 8.615C24.8975 8.435 25.1325 8.155 25.3225 7.775L27.5275 8.9C27.2475 9.61 26.7725 10.16 26.1025 10.55C25.4325 10.94 24.6375 11.135 23.7175 11.135ZM33.5655 11V9.485L33.3705 9.11V6.32C33.3705 5.87 33.2305 5.525 32.9505 5.285C32.6805 5.035 32.2455 4.91 31.6455 4.91C31.2555 4.91 30.8605 4.975 30.4605 5.105C30.0605 5.225 29.7205 5.395 29.4405 5.615L28.4805 3.68C28.9405 3.38 29.4905 3.15 30.1305 2.99C30.7805 2.82 31.4255 2.735 32.0655 2.735C33.3855 2.735 34.4055 3.04 35.1255 3.65C35.8555 4.25 36.2205 5.195 36.2205 6.485V11H33.5655ZM31.1655 11.135C30.5155 11.135 29.9655 11.025 29.5155 10.805C29.0655 10.585 28.7205 10.285 28.4805 9.905C28.2505 9.525 28.1355 9.1 28.1355 8.63C28.1355 8.13 28.2605 7.7 28.5105 7.34C28.7705 6.97 29.1655 6.69 29.6955 6.5C30.2255 6.3 30.9105 6.2 31.7505 6.2H33.6705V7.685H32.1405C31.6805 7.685 31.3555 7.76 31.1655 7.91C30.9855 8.06 30.8955 8.26 30.8955 8.51C30.8955 8.76 30.9905 8.96 31.1805 9.11C31.3705 9.26 31.6305 9.335 31.9605 9.335C32.2705 9.335 32.5505 9.26 32.8005 9.11C33.0605 8.95 33.2505 8.71 33.3705 8.39L33.7605 9.44C33.6105 10 33.3155 10.425 32.8755 10.715C32.4455 10.995 31.8755 11.135 31.1655 11.135ZM48.6095 2.735C49.2395 2.735 49.7995 2.865 50.2895 3.125C50.7895 3.375 51.1795 3.765 51.4595 4.295C51.7495 4.825 51.8945 5.51 51.8945 6.35V11H49.0445V6.815C49.0445 6.235 48.9345 5.815 48.7145 5.555C48.4945 5.285 48.1945 5.15 47.8145 5.15C47.5445 5.15 47.2995 5.215 47.0795 5.345C46.8595 5.475 46.6895 5.675 46.5695 5.945C46.4495 6.205 46.3895 6.545 46.3895 6.965V11H43.5395V6.815C43.5395 6.235 43.4295 5.815 43.2095 5.555C42.9995 5.285 42.6995 5.15 42.3095 5.15C42.0295 5.15 41.7795 5.215 41.5595 5.345C41.3495 5.475 41.1795 5.675 41.0495 5.945C40.9295 6.205 40.8695 6.545 40.8695 6.965V11H38.0195V2.87H40.7345V5.135L40.1945 4.49C40.4945 3.91 40.9045 3.475 41.4245 3.185C41.9445 2.885 42.5245 2.735 43.1645 2.735C43.8945 2.735 44.5345 2.925 45.0845 3.305C45.6445 3.675 46.0195 4.255 46.2095 5.045L45.2795 4.85C45.5695 4.19 46.0045 3.675 46.5845 3.305C47.1745 2.925 47.8495 2.735 48.6095 2.735ZM57.8759 11.135C56.9859 11.135 56.1959 10.955 55.5059 10.595C54.8159 10.235 54.2709 9.74 53.8709 9.11C53.4809 8.47 53.2859 7.74 53.2859 6.92C53.2859 6.1 53.4809 5.375 53.8709 4.745C54.2709 4.115 54.8159 3.625 55.5059 3.275C56.1959 2.915 56.9859 2.735 57.8759 2.735C58.7659 2.735 59.5559 2.915 60.2459 3.275C60.9459 3.625 61.4909 4.115 61.8809 4.745C62.2709 5.375 62.4659 6.1 62.4659 6.92C62.4659 7.74 62.2709 8.47 61.8809 9.11C61.4909 9.74 60.9459 10.235 60.2459 10.595C59.5559 10.955 58.7659 11.135 57.8759 11.135ZM57.8759 8.87C58.2059 8.87 58.4959 8.795 58.7459 8.645C59.0059 8.495 59.2109 8.275 59.3609 7.985C59.5109 7.685 59.5859 7.33 59.5859 6.92C59.5859 6.51 59.5109 6.165 59.3609 5.885C59.2109 5.595 59.0059 5.375 58.7459 5.225C58.4959 5.075 58.2059 5 57.8759 5C57.5559 5 57.2659 5.075 57.0059 5.225C56.7559 5.375 56.5509 5.595 56.3909 5.885C56.2409 6.165 56.1659 6.51 56.1659 6.92C56.1659 7.33 56.2409 7.685 56.3909 7.985C56.5509 8.275 56.7559 8.495 57.0059 8.645C57.2659 8.795 57.5559 8.87 57.8759 8.87ZM63.7861 11V2.87H66.5011V5.24L66.0961 4.565C66.3361 3.955 66.7261 3.5 67.2661 3.2C67.8061 2.89 68.4611 2.735 69.2311 2.735V5.3C69.1011 5.28 68.9861 5.27 68.8861 5.27C68.7961 5.26 68.6961 5.255 68.5861 5.255C68.0061 5.255 67.5361 5.415 67.1761 5.735C66.8161 6.045 66.6361 6.555 66.6361 7.265V11H63.7861ZM74.5939 11.135C73.6339 11.135 72.7939 10.955 72.0739 10.595C71.3639 10.225 70.8089 9.725 70.4089 9.095C70.0189 8.455 69.8239 7.73 69.8239 6.92C69.8239 6.11 70.0139 5.39 70.3939 4.76C70.7839 4.12 71.3189 3.625 71.9989 3.275C72.6789 2.915 73.4439 2.735 74.2939 2.735C75.0939 2.735 75.8239 2.9 76.4839 3.23C77.1439 3.55 77.6689 4.025 78.0589 4.655C78.4489 5.285 78.6439 6.05 78.6439 6.95C78.6439 7.05 78.6389 7.165 78.6289 7.295C78.6189 7.425 78.6089 7.545 78.5989 7.655H72.1639V6.155H77.0839L76.0039 6.575C76.0139 6.205 75.9439 5.885 75.7939 5.615C75.6539 5.345 75.4539 5.135 75.1939 4.985C74.9439 4.835 74.6489 4.76 74.3089 4.76C73.9689 4.76 73.6689 4.835 73.4089 4.985C73.1589 5.135 72.9639 5.35 72.8239 5.63C72.6839 5.9 72.6139 6.22 72.6139 6.59V7.025C72.6139 7.425 72.6939 7.77 72.8539 8.06C73.0239 8.35 73.2639 8.575 73.5739 8.735C73.8839 8.885 74.2539 8.96 74.6839 8.96C75.0839 8.96 75.4239 8.905 75.7039 8.795C75.9939 8.675 76.2789 8.495 76.5589 8.255L78.0589 9.815C77.6689 10.245 77.1889 10.575 76.6189 10.805C76.0489 11.025 75.3739 11.135 74.5939 11.135Z" fill="#004D40"/>
</svg>
